<svg xmlns="http://www.w3.org/2000/svg" viewBox="0 0 500 500"><g id="freepik--Floor--inject-227"><ellipse id="freepik--floor--inject-227" cx="249.97" cy="338.89" rx="229.13" ry="127.07" style="fill:#f5f5f5"></ellipse></g><g id="freepik--Shadows--inject-227"><path id="freepik--Shadow--inject-227" d="M391.37,387.86l12-6.93c31.4-18.13,31.4-47.53,0-65.66l-53.92-31.13c-31.41-18.13-82.32-18.13-113.72,0l-12,6.94c-31.4,18.13-31.4,47.52,0,65.65l53.92,31.13C309.05,406,360,406,391.37,387.86Z" style="fill:#e0e0e0"></path><ellipse id="freepik--shadow--inject-227" cx="261.46" cy="399.28" rx="27.88" ry="16.09" style="fill:#e0e0e0"></ellipse><path id="freepik--shadow--inject-227" d="M245,356.71c-10.88-6.29-28.53-6.29-39.42,0s-10.89,16.48,0,22.76,28.54,6.29,39.42,0S255.88,363,245,356.71Z" style="fill:#e0e0e0"></path><ellipse id="freepik--shadow--inject-227" cx="130.05" cy="344.68" rx="62.13" ry="35.87" style="fill:#e0e0e0"></ellipse></g><g id="freepik--Plants--inject-227"><g id="freepik--plants--inject-227"><path d="M84.47,316.87l7.15-.95s5.07-14.07,5.84-26.37c1.14-18.4-10.23-38.9-20.26-44.55-18.5-10.42-22.38,8.33-9.71,22C78.52,278.86,87.15,294.93,84.47,316.87Z" style="fill:#40A2FF"></path><path d="M87.9,316.75l-.07,0a.81.81,0,0,1-.4-1.06c7.07-15.53,1.06-49-14.77-62a.79.79,0,0,1-.11-1.12.78.78,0,0,1,1.12-.11C90,265.8,96.17,300.31,88.89,316.33A.81.81,0,0,1,87.9,316.75Z" style="fill:#fff"></path><path d="M91.15,328.05c.74-1.86,1.55-4.65,1.76-5.34a18.52,18.52,0,0,0,.71-7.47,17.17,17.17,0,0,1-.53-3.34,23.25,23.25,0,0,0,.5-3.06A8.28,8.28,0,0,0,91,303c-1.56-1.39-3.77-2.34-4.37-4.35-.41-1.34.06-2.78.41-4.14.54-2.09.77-4.4-.23-6.31-1.29-2.45-4.25-3.52-7-3.82s-5.6-.07-8.25-.87c-4.49-1.36-7.68-5.44-12.07-7.08a14.22,14.22,0,0,0-4.87-.84c-2.45,0-5.1.6-6.64,2.5a6.74,6.74,0,0,0-.87,6.38,13.7,13.7,0,0,0,4.38,5.7c1.92,1.67,3.21,3.2,1.56,5.69a7.83,7.83,0,0,0-1.23,2.27,4.41,4.41,0,0,0,1.43,4.13,13.11,13.11,0,0,0,3.93,2.3l4.95,2.17c1.45.63,3.15,1.72,2.89,3.27-.15,1-1,1.61-1.59,2.41a5,5,0,0,0,.24,5.51,9.59,9.59,0,0,0,4.71,3.34c1.83.68,3.76,1.06,5.61,1.68a22.59,22.59,0,0,1,7.77,4.53,7.23,7.23,0,0,0,1.87,1.39C84.62,329.35,90.69,329.22,91.15,328.05Z" style="fill:#40A2FF"></path><path d="M91.15,328.05c.74-1.86,1.55-4.65,1.76-5.34a18.52,18.52,0,0,0,.71-7.47,17.17,17.17,0,0,1-.53-3.34,23.25,23.25,0,0,0,.5-3.06A8.28,8.28,0,0,0,91,303c-1.56-1.39-3.77-2.34-4.37-4.35-.41-1.34.06-2.78.41-4.14.54-2.09.77-4.4-.23-6.31-1.29-2.45-4.25-3.52-7-3.82s-5.6-.07-8.25-.87c-4.49-1.36-7.68-5.44-12.07-7.08a14.22,14.22,0,0,0-4.87-.84c-2.45,0-5.1.6-6.64,2.5a6.74,6.74,0,0,0-.87,6.38,13.7,13.7,0,0,0,4.38,5.7c1.92,1.67,3.21,3.2,1.56,5.69a7.83,7.83,0,0,0-1.23,2.27,4.41,4.41,0,0,0,1.43,4.13,13.11,13.11,0,0,0,3.93,2.3l4.95,2.17c1.45.63,3.15,1.72,2.89,3.27-.15,1-1,1.61-1.59,2.41a5,5,0,0,0,.24,5.51,9.59,9.59,0,0,0,4.71,3.34c1.83.68,3.76,1.06,5.61,1.68a22.59,22.59,0,0,1,7.77,4.53,7.23,7.23,0,0,0,1.87,1.39C84.62,329.35,90.69,329.22,91.15,328.05Z" style="opacity:0.2"></path><path d="M87.64,329.17a.72.72,0,0,1-.51-.59C84.33,310,71.86,293,52,280.63a.73.73,0,0,1,.77-1.24c20.22,12.61,32.94,30,35.8,49a.73.73,0,0,1-.61.82A.69.69,0,0,1,87.64,329.17Z" style="fill:#fff"></path></g></g><g id="freepik--piggy-bank--inject-227"><g id="freepik--piggy-bank--inject-227"><path d="M270.66,164.41c-.6-1.68-2.38-3.07-4.15-2.28-3.84,1.7-5.34,1.94-9.67,2.34a20.71,20.71,0,0,1-9.55-2.08c-6.4-3.78-9.89-9.58-10.37-16.15A29.5,29.5,0,0,1,238,135.91c9.23,4.85,22.13,2.59,29-5.41,5.08-5.92,3.86-13.22-3.67-16.23s-18.45-1.79-25.19,2.6a21.29,21.29,0,0,0-2.05,1.52c.79-7.25,3.63-14.48,13.08-18.9,1.1-.51,2.07-1.8.72-2-8.3-1-15.09,4.3-18.61,11.39-2.77,5.55-4.11,12-1.83,17.76a39.2,39.2,0,0,0-4,11.37c-1.33,7.1-.05,16.67,3.13,22.16,4.34,7.51,10.86,13.55,23.45,15.41C258.86,176.62,274.27,174.57,270.66,164.41Zm-14.92-42.64c3.46,0,6.61,1.38,4.44,4.31-1.26,1.7-3.17,2.69-5.67,3.69-3.87,1.53-9.23.62-12.95-1.28C245,123.94,250,121.87,255.74,121.77Z" style="fill:#ffa8a7"></path><path d="M229.46,126.68a39,39,0,0,0-3.33,8.59A18.46,18.46,0,0,0,237,141.69a29.88,29.88,0,0,1,1.07-5.78C232.53,132.77,231,130,229.46,126.68Z" style="fill:#f28f8f"></path><path d="M241.56,128.49a17.63,17.63,0,0,1,1.36-1.6,15,15,0,0,1-4.17-3.46c-2.47-2.86-2.65-5-2.65-5C235.93,121.94,238.39,126.79,241.56,128.49Z" style="fill:#f28f8f"></path><path d="M350.34,328.15l0-.22,0-.22h0c.67-5-2.32-10.18-9-14-12.09-7-31.7-7-43.8,0-6.65,3.84-9.63,9-9,14h0l0,.23c0,.07-12.86-1.67-12.86-1.67l3,3.11a57.24,57.24,0,0,1,15,30.31l1.74,10.87h0l0,.11h0c.55,3.06,2.86,6,6.92,8.38,9.41,5.43,24.66,5.43,34.06,0,4.07-2.34,6.37-5.32,6.92-8.38h0v-.08a.22.22,0,0,0,0-.08Z" style="fill:#f28f8f"></path><path d="M285.57,290.75l0-.21,0-.23h0c.67-5-2.41-10-9-14-4.64-2.82-28.77-2.82-42.74-2.82-8.3,0-12.86-.84-12.2,4.18h0l0,.23c0,.07-9.23-11.36-9.23-11.36h0A157,157,0,0,1,227.32,312l3.47,21.18h0l0,.12h0c.55,3.06,2.86,6,6.92,8.38,9.41,5.43,24.66,5.43,34.06,0,4.07-2.35,6.37-5.32,6.92-8.38h0v-.09a.17.17,0,0,0,0-.07Z" style="fill:#f28f8f"></path><path d="M357.53,304l0-.21,0-.23h0c-.67-5,2.41-10,9-14,4.64-2.82,28.77-2.82,42.74-2.82,8.3,0,12.86-.84,12.2,4.18h0l0,.23,0,.2-9,55.07h0l0,.12h0c-.56,3.06-2.86,6-6.92,8.38-9.41,5.43-24.66,5.43-34.06,0-4.07-2.35-6.37-5.32-6.92-8.38h0v-.09a.19.19,0,0,1,0-.08Z" style="fill:#f28f8f"></path><path d="M351.28,147.39c-13.73-5.94-29.36-10-45.34-10a98.7,98.7,0,0,0-98.69,98.69c0,36.27,21.28,65.34,48.71,85.12,11.5,8.29,31.3,19.22,42.7,24.92,16.26,8.14,31.72,13.56,49.95,13.56A98.7,98.7,0,0,0,447.3,261c0-35.37-19-65-45.74-84.3C386.32,165.7,366.52,154,351.28,147.39Z" style="fill:#ffa8a7"></path><path d="M268.21,306.47c-38.1-30.79-61-99-30.48-141.7a98.38,98.38,0,0,0-30.48,71.31c0,36.27,21.28,65.34,48.71,85.12,11.5,8.29,31.3,19.22,42.7,24.92,16.26,8.14,31.72,13.56,49.95,13.56a98.41,98.41,0,0,0,73.76-33.14C367,366.4,306.31,337.27,268.21,306.47Z" style="fill:#f49c9c"></path><path d="M371.08,181.09l15.24,8.8c15.24-4.4,33.46-1.72,45.11,18,0,0,4-46.09-1.9-58.82,0,0-3.16-1.82-4.42-2.56-1.93-1.13-5-1.47-8.76-.82C397.53,148.93,380.55,164.57,371.08,181.09Z" style="fill:#ffbbba"></path><path d="M386.32,189.89c19.74-5.06,34.77,1.12,45.11,18,0,0,17.31-66.24-10.82-59.74C401.56,152.5,386.32,189.89,386.32,189.89Z" style="fill:#f28f8f"></path><path d="M414.89,183.29c-18.34-6.73-28.57,6.6-28.57,6.6,19.74-5.06,34.77,1.12,45.11,18C431.43,207.84,433.24,190,414.89,183.29Z" style="fill:#d46a6a"></path><path d="M355.84,207.49c-16.7,15.19-31.7,34.47-42.68,63.35l-14.6-8.37c-5.47-5.55-19.7-52.78,7.75-70.38C324.65,180.34,355.84,207.49,355.84,207.49Z" style="fill:#ffbbba"></path><path d="M355.84,207.49c-19.74,17.72-33.54,39.1-42.68,63.35,0,0-30.66-53.07-3-76.55C326.25,180.58,355.84,207.49,355.84,207.49Z" style="fill:#f28f8f"></path><path d="M355.84,207.49s-16.78,0-31.23,19.8c-13.52,18.51-11.45,43.55-11.45,43.55C322.3,246.59,336.1,225.21,355.84,207.49Z" style="fill:#d46a6a"></path><path d="M428.94,257.06c-5.91-3.4-14.28-2.81-23.57,2.55C387.48,269.94,373,294.06,373,313.5c0,9.28,3.31,15.81,8.71,19,2.61,1.53,12.81,7.44,15.44,8.93,5.9,3.34,14.24,2.73,23.48-2.6C438.49,328.47,453,304.34,453,284.91c0-9.27-3.3-15.8-8.69-19C441.69,264.41,431.53,258.55,428.94,257.06Z" style="fill:#f28f8f"></path><path d="M420.61,268.41c17.88-10.33,32.38-2.94,32.38,16.5s-14.5,43.56-32.38,53.89-32.39,2.94-32.39-16.5S402.72,278.73,420.61,268.41Z" style="fill:#ffa8a7"></path><path d="M394.72,336.24c-8.18-11.26-2.91-34.86,6.16-49.15-7.69,10.87-12.66,23.84-12.66,35.21,0,19.44,14.5,26.82,32.39,16.5a61.25,61.25,0,0,0,16.07-13.93C425.42,338.37,403.46,348.27,394.72,336.24Z" style="fill:#ffbbba"></path><path d="M409.18,304.27c3.15-1.82,5.71-.34,5.71,3.3a12.63,12.63,0,0,1-5.71,9.9c-3.16,1.83-5.72.35-5.72-3.3A12.65,12.65,0,0,1,409.18,304.27Z" style="fill:#f28f8f"></path><path d="M411.08,305.37a6,6,0,0,0-.24-1.77,6.08,6.08,0,0,0-1.66.67,12.65,12.65,0,0,0-5.72,9.9,6,6,0,0,0,.25,1.78,6,6,0,0,0,1.66-.68A12.63,12.63,0,0,0,411.08,305.37Z" style="fill:#e37b7b"></path><path d="M432,291.08c3.15-1.83,5.71-.35,5.71,3.3a12.63,12.63,0,0,1-5.71,9.89c-3.16,1.83-5.72.35-5.72-3.29A12.62,12.62,0,0,1,432,291.08Z" style="fill:#f28f8f"></path><path d="M433.94,292.18a6,6,0,0,0-.24-1.78,5.71,5.71,0,0,0-1.66.68,12.62,12.62,0,0,0-5.72,9.9,6,6,0,0,0,.25,1.77,6.21,6.21,0,0,0,1.66-.67A12.67,12.67,0,0,0,433.94,292.18Z" style="fill:#e37b7b"></path><circle cx="363.46" cy="264.68" r="7.62" style="fill:#37474f"></circle><circle cx="420.61" cy="238.28" r="7.62" transform="translate(-45.3 367.21) rotate(-45)" style="fill:#37474f"></circle><polygon points="336.79 183.29 302.5 163.5 310.12 159.1 344.41 178.89 336.79 183.29" style="fill:#f28f8f"></polygon><polygon points="310.12 159.1 310.12 163.5 340.6 181.09 344.41 178.89 310.12 159.1" style="fill:#e37b7b"></polygon><polygon points="310.12 159.1 310.12 163.5 306.31 165.7 302.5 163.5 310.12 159.1" style="fill:#d46a6a"></polygon><path d="M321.43,122a2.71,2.71,0,0,1-2.82-2.59L317.5,93.22a2.71,2.71,0,1,1,5.42-.23L324,119.2A2.71,2.71,0,0,1,321.43,122Z" style="fill:#e0e0e0"></path><path d="M293.6,127.37a2.69,2.69,0,0,1-2.3-1.43l-12.38-23.12a2.71,2.71,0,1,1,4.78-2.56l12.38,23.12a2.71,2.71,0,0,1-1.11,3.67A2.61,2.61,0,0,1,293.6,127.37Z" style="fill:#e0e0e0"></path><path d="M368.47,141.32a2.71,2.71,0,0,1-2-4.83l20.71-16.09a2.71,2.71,0,1,1,3.33,4.28l-20.71,16.1A2.71,2.71,0,0,1,368.47,141.32Z" style="fill:#e0e0e0"></path><path d="M349.31,126.69a2.77,2.77,0,0,1-1.39-.17,2.71,2.71,0,0,1-1.5-3.53l9.82-24.32a2.71,2.71,0,0,1,5,2L351.45,125A2.72,2.72,0,0,1,349.31,126.69Z" style="fill:#e0e0e0"></path></g></g><g id="freepik--Character--inject-227"><g id="freepik--character--inject-227"><path d="M160.53,322.2a3.64,3.64,0,0,0,.4-1.78c0-.66,0-1.33.08-2,.34-5.06,4.36-53.22,5.37-64.28,1.69-18.58,1.77-68.23-2-84.22l-50,4c-3.58,9-6.19,20.08-5.59,37.46.46,13.25.25,49.19.25,49.19s-6,5.3-10.32,15.75c-3.79,9.22-6.22,31.84-8.32,40.79a28.7,28.7,0,0,1-1.22,4.33,7.92,7.92,0,0,0-1.77,4.65,78.42,78.42,0,0,0,1.79,16.38,7.63,7.63,0,0,0,5.13,5.67,4.45,4.45,0,0,0,1.94.31,1.44,1.44,0,0,0,.94-.35c.47-.47,0-1.58,0-2.14A20.69,20.69,0,0,1,97,343.2c0-1.79,0-4,.11-5.76A59.15,59.15,0,0,1,99,325.57l1-2.3s21.38-43.41,27.46-54c4.83-8.31,9.74-40.54,13.14-58.15l5.92,42.05a81.77,81.77,0,0,0-3.18,13.41c-.88,7.81,4.67,38.15,6.35,49a24.08,24.08,0,0,1,.25,4.8,4.84,4.84,0,0,0,0,1.47,2.63,2.63,0,0,0,1,1.23,5.48,5.48,0,0,0,1.75.76,10.66,10.66,0,0,0,4.17.26c.53-.07,1-.25,1.54-.35a3.37,3.37,0,0,0,1.59-.79A3.09,3.09,0,0,0,160.53,322.2Z" style="fill:#ffa8a7"></path><path d="M106.71,358.52l-.37.08a23.4,23.4,0,0,1-10-.07,17.25,17.25,0,0,1-7.83-4.18,11.16,11.16,0,0,1-2.06-3.43,28,28,0,0,1-1.28-4c-1.23-4.34-.15-5.69-1.84-9.91a35.19,35.19,0,0,1-1.89-4.52,5.78,5.78,0,0,1,1-2.32l6.11,7.18,4.06,4.77c.72.83,1.43,1.67,2.14,2.51.49.57.88,1.32,1.41,1.83a10.74,10.74,0,0,0,2.6,1.48c.93.48,1.89.93,2.86,1.35a50,50,0,0,0,5.82,2.13,9.81,9.81,0,0,1,2.41.94,3,3,0,0,1,1.48,2,2.8,2.8,0,0,1-.65,2.07A6.55,6.55,0,0,1,106.71,358.52Z" style="fill:#37474f"></path><path d="M98.42,327l.76-1.92c.8.56.08,4.48.29,8.48a28.87,28.87,0,0,0,.79,5.3,10.84,10.84,0,0,0,2.18,4.32,23.23,23.23,0,0,0,5.61,5.18,7.06,7.06,0,0,1,2.49,2.14A3.82,3.82,0,0,1,111,354a4,4,0,0,1-1.88,1.9,11.17,11.17,0,0,1-3.53,1.06,21.62,21.62,0,0,1-11.68-1.29,13.74,13.74,0,0,1-5.19-3.76,14.2,14.2,0,0,1-2.14-5c-.91-3.08-1-6.3-1.56-8.66s-2.83-5.66-2.69-8.05c.08-1.32,1.6-3.64,3-5.54,1.32-1.74,3.42-4,4-3.56-.09.24-.41,1.28-.41,1.28A8,8,0,0,0,98.42,327Z" style="fill:#455a64"></path><path d="M102.79,343.87a.49.49,0,0,0,0-1c-2.87-.49-8,.13-10.26,1.65a.51.51,0,0,0-.13.69.49.49,0,0,0,.68.13c2.07-1.37,6.91-1.94,9.55-1.5Z" style="fill:#e0e0e0"></path><path d="M101.07,340.17a.49.49,0,0,0,.05-1c-2.6-.61-7-.33-9.57,1.18a.49.49,0,0,0-.17.67.49.49,0,0,0,.67.18c2.29-1.34,6.42-1.64,8.85-1.08A.33.33,0,0,0,101.07,340.17Z" style="fill:#e0e0e0"></path><path d="M100,336.31a.51.51,0,0,0,.41-.29.5.5,0,0,0-.26-.65c-2.29-1-6.87-.56-9.26.88a.49.49,0,0,0-.17.68.5.5,0,0,0,.68.16c2.12-1.28,6.35-1.69,8.36-.82A.41.41,0,0,0,100,336.31Z" style="fill:#e0e0e0"></path><path d="M183.22,344a4.73,4.73,0,0,1-1.88,4.27c-1.57,1-7,3.36-12.21,2.06-7.09-1.79-8.46-3.69-10.89-6.26-3.11-3.27-2.78-5-6.23-7.91a33,33,0,0,1-3.78-3.12,10.36,10.36,0,0,1-.33-3.32Z" style="fill:#37474f"></path><path d="M160.8,320l.21-1.53c1,.13,1.72,3.39,3.77,6.84a28.41,28.41,0,0,0,6.66,7.33c4.07,3.08,9.2,6.13,11.51,9.59s-4.88,6.71-10.34,6.59a18.41,18.41,0,0,1-13-5.7c-2.25-2.3-3.8-5.12-5.42-6.94s-5.14-3.69-6.12-5.88c-.54-1.2-.28-4,.11-6.31.36-2.15,1-4.89,1.74-4.76,0,.21,0,1.17,0,1.17a8.94,8.94,0,0,0,6,1.7A7.86,7.86,0,0,0,160.8,320Z" style="fill:#455a64"></path><path d="M175.09,335a.5.5,0,0,0,.25-.51.5.5,0,0,0-.57-.41c-2.87.45-7.52,2.66-9.2,4.83a.49.49,0,1,0,.78.6c1.52-2,5.93-4,8.58-4.46A.43.43,0,0,0,175.09,335Z" style="fill:#e0e0e0"></path><path d="M171.2,332.27a.48.48,0,0,0,.25-.5.5.5,0,0,0-.57-.41c-2.63.41-6.6,2.31-8.43,4.67a.49.49,0,0,0,.78.6c1.63-2.1,5.35-3.92,7.81-4.3A.44.44,0,0,0,171.2,332.27Z" style="fill:#e0e0e0"></path><path d="M167.91,329.46a.48.48,0,0,0,.25-.43.49.49,0,0,0-.49-.49c-2.49,0-6.52,2.27-8.12,4.55a.5.5,0,0,0,.12.69.52.52,0,0,0,.69-.12c1.43-2,5.12-4.12,7.31-4.13A.48.48,0,0,0,167.91,329.46Z" style="fill:#e0e0e0"></path><path d="M121.52,159.88s-8,10.94-10.75,22.63-2.64,19.36-2.53,39.72.4,38.07.4,38.07S98.53,267,95.19,290.11c0,0,8,8.2,18.53,5.48,0,0,11.35-20.16,15.1-26.49s11.71-58,11.71-58l4.79,42.12s-3.62,10.07-3.14,17.19S144.07,288,144.07,288a24.82,24.82,0,0,0,19.37-.6s3.93-33.07,4.38-45.07,1.91-54.37-4-80.91Z" style="fill:#455a64"></path><path d="M140.5,211.24l4.74-18.56s9.11,1.06,16.29-4.24c0,0-1.47,6.78-14.18,8.81l-5.42,18.23.08,8.7Z" style="fill:#37474f"></path><path d="M235.85,138.51c-2.86.4-9.45,1-9.45,1s4-4.11,2.64-5.25-2.66,1.82-6.95,3.08-6.13,3.23-8.65,3L182,137.54s-18.47-28.89-21.83-31.92-7.4-3.44-11.75-2.82l3.76,23.56,16.18,19.79c3.77,4.61,5.25,6.21,10.88,6.51,6.41.34,22.8-.51,32.26-1.07,6.15.14,8.18.6,12.54.32,4.67-.29,9.51.2,13.34-5.28C241.83,140.25,240,138,235.85,138.51Z" style="fill:#f28f8f"></path><path d="M234.49,113.39a25.14,25.14,0,0,1,1.24,10.72c-1.11,14.77-11.38,31.25-22.94,36.81a15.47,15.47,0,0,1-9,1.7l-.88,1.41-4.73-4.17v0c-3.17-3.09-4.86-8.49-4.32-15.6,1.11-14.76,11.38-31.24,22.94-36.8,5.56-2.67,10.41-2.35,13.81.37h0l4.74,4.17Z" style="fill:#40A2FF"></path><g style="opacity:0.25"><path d="M234.49,113.39a25.14,25.14,0,0,1,1.24,10.72c-1.11,14.77-11.38,31.25-22.94,36.81a15.47,15.47,0,0,1-9,1.7l-.88,1.41-4.73-4.17v0c-3.17-3.09-4.86-8.49-4.32-15.6,1.11-14.76,11.38-31.24,22.94-36.8,5.56-2.67,10.41-2.35,13.81.37h0l4.74,4.17Z"></path></g><path d="M228.18,146c-4.15,6.66-9.61,12.17-15.39,14.95a15.47,15.47,0,0,1-9,1.7l-.88,1.41-4.73-4.17v0c-3.17-3.09-4.86-8.49-4.32-15.6a49.77,49.77,0,0,1,7.55-21.85Z" style="opacity:0.1"></path><path d="M217.15,158.27a27.76,27.76,0,0,1-4.36,2.65,15.47,15.47,0,0,1-9,1.7l-.88,1.41-4.73-4.17v0c-3.17-3.09-4.86-8.49-4.32-15.6a41,41,0,0,1,.86-5.72Z" style="opacity:0.1"></path><path d="M234.87,129.84a41.12,41.12,0,0,0,.86-5.73,25.14,25.14,0,0,0-1.24-10.72l.88-1.41-4.74-4.17h0c-3.4-2.72-8.25-3-13.81-.37a27.76,27.76,0,0,0-4.36,2.65Z" style="fill:#40A2FF"></path><path d="M221.16,111.26c-11.56,5.56-21.83,22-22.94,36.81s7.35,22.23,18.91,16.67,21.82-22,22.94-36.8S232.71,105.7,221.16,111.26Z" style="fill:#40A2FF"></path><path d="M221.16,111.26c-11.56,5.56-21.83,22-22.94,36.81s7.35,22.23,18.91,16.67,21.82-22,22.94-36.8S232.71,105.7,221.16,111.26Z" style="opacity:0.2"></path><path d="M232.61,131.3a35.19,35.19,0,0,1-5.2,14c-2.81,4.51-6.27,8.06-9.74,10-3.68,2-7,2-9.29,0s-3.27-5.79-2.7-10.57a35.07,35.07,0,0,1,5.19-14c2.81-4.51,6.27-8.05,9.75-10,3.67-2,7-2,9.28,0S233.17,126.53,232.61,131.3Z" style="fill:#40A2FF"></path><path d="M232.61,131.3a35.19,35.19,0,0,1-5.2,14c-2.81,4.51-6.27,8.06-9.74,10-3.68,2-7,2-9.29,0s-3.27-5.79-2.7-10.57a35.07,35.07,0,0,1,5.19-14c2.81-4.51,6.27-8.05,9.75-10,3.67-2,7-2,9.28,0S233.17,126.53,232.61,131.3Z" style="opacity:0.4"></path><path d="M234.66,113.11c-3.2-2.82-7.81-3-13-.51-5.4,2.6-10.69,7.75-14.9,14.5a48.15,48.15,0,0,0-7.34,21.17c-.5,6.61,1,11.8,4.19,14.62s7.8,3,13,.51c5.39-2.59,10.69-7.74,14.9-14.49a48,48,0,0,0,7.33-21.18C239.34,121.12,237.86,115.93,234.66,113.11Zm-4.76,7.63c2.31,2,3.27,5.79,2.71,10.56a35.19,35.19,0,0,1-5.2,14c-2.81,4.51-6.27,8.06-9.74,10-3.68,2-7,2-9.29,0s-3.27-5.79-2.7-10.57a35.07,35.07,0,0,1,5.19-14c2.81-4.51,6.27-8.05,9.75-10C224.29,118.7,227.59,118.7,229.9,120.74Z" style="fill:#40A2FF"></path><path d="M221.07,121.77c6.91-3.82,11.64.35,10.57,9.32s-7.52,19.33-14.43,23.15-11.63-.36-10.57-9.32S214.17,125.59,221.07,121.77Z" style="opacity:0.2"></path><path d="M221.07,121.77c6.91-3.82,11.64.35,10.57,9.32s-7.52,19.33-14.43,23.15-11.63-.36-10.57-9.32S214.17,125.59,221.07,121.77Z" style="fill:#40A2FF"></path><path d="M221.07,121.77c6.91-3.82,11.64.35,10.57,9.32s-7.52,19.33-14.43,23.15-11.63-.36-10.57-9.32S214.17,125.59,221.07,121.77Z" style="opacity:0.6000000000000001"></path><path d="M229.66,129.34c-1.06,9-7.52,19.33-14.43,23.15-2.85,1.58-5.33,1.79-7.19.86-1.28-1.84-1.84-4.73-1.4-8.43,1.07-9,7.53-19.33,14.43-23.15,2.86-1.58,5.34-1.79,7.19-.86C229.55,122.75,230.1,125.64,229.66,129.34Z" style="fill:#40A2FF"></path><path d="M229.66,129.34c-1.06,9-7.52,19.33-14.43,23.15-2.85,1.58-5.33,1.79-7.19.86-1.28-1.84-1.84-4.73-1.4-8.43,1.07-9,7.53-19.33,14.43-23.15,2.86-1.58,5.34-1.79,7.19-.86C229.55,122.75,230.1,125.64,229.66,129.34Z" style="opacity:0.5"></path><path d="M223,134.52a4.23,4.23,0,0,0-3.3,0c-.38.11-.74.24-1.09.35a3.78,3.78,0,0,1,1.45-1.44c1.66-1,2.36-.15,2.53.69l4-3.6a4.41,4.41,0,0,0-.46-1.09,2.25,2.25,0,0,0-.73-.74c-.19-.12-2.91-1.61-3.18-1.68a2.66,2.66,0,0,0-.75-.1l0-.48-2.58-1.42-3.15,1.89,0,.57.07,2s-1.56.65-3.23,3.6l-.2.35a7.91,7.91,0,0,0-1,4h0a2.81,2.81,0,0,0,1.08,2.49c.07,0,2.2,1.17,2.54,1.4l.24.13.2.08h0l.21.06a.69.69,0,0,0,.2,0H216l.16,0a5.83,5.83,0,0,0,1.41-.13l.73-.18,1-.31.32-.1a4.1,4.1,0,0,1-1.45,1.37,4.16,4.16,0,0,1-1,.45L215.7,142l-3.8,3.45a2.78,2.78,0,0,0,1.06,1.46c.46.31,2.3,1.26,2.7,1.5a2.49,2.49,0,0,0,1.11.33l0,.56,2.59,1.43,3.18-1.91-.1-2.52a11.6,11.6,0,0,0,3.12-3.48l0,0a8,8,0,0,0,1.05-4.22,3,3,0,0,0-1.08-2.58C225.09,135.64,223.33,134.74,223,134.52Z" style="fill:#40A2FF"></path><path d="M223,134.52a4.23,4.23,0,0,0-3.3,0c-.38.11-.74.24-1.09.35a3.78,3.78,0,0,1,1.45-1.44c1.66-1,2.36-.15,2.53.69l4-3.6a4.41,4.41,0,0,0-.46-1.09,2.25,2.25,0,0,0-.73-.74c-.19-.12-2.91-1.61-3.18-1.68a2.66,2.66,0,0,0-.75-.1l0-.48-2.58-1.42-3.15,1.89,0,.57.07,2s-1.56.65-3.23,3.6l-.2.35a7.91,7.91,0,0,0-1,4h0a2.81,2.81,0,0,0,1.08,2.49c.07,0,2.2,1.17,2.54,1.4l.24.13.2.08h0l.21.06a.69.69,0,0,0,.2,0H216l.16,0a5.83,5.83,0,0,0,1.41-.13l.73-.18,1-.31.32-.1a4.1,4.1,0,0,1-1.45,1.37,4.16,4.16,0,0,1-1,.45L215.7,142l-3.8,3.45a2.78,2.78,0,0,0,1.06,1.46c.46.31,2.3,1.26,2.7,1.5a2.49,2.49,0,0,0,1.11.33l0,.56,2.59,1.43,3.18-1.91-.1-2.52a11.6,11.6,0,0,0,3.12-3.48l0,0a8,8,0,0,0,1.05-4.22,3,3,0,0,0-1.08-2.58C225.09,135.64,223.33,134.74,223,134.52Z" style="opacity:0.30000000000000004"></path><g style="opacity:0.1"><path d="M222.26,136a4.38,4.38,0,0,1,3.24-.07c-.55-.34-2.18-1.17-2.53-1.39a4.23,4.23,0,0,0-3.3,0c-.38.11-.74.24-1.09.35h0a2.33,2.33,0,0,0-.24,1.07C218.41,137.59,220.21,136.59,222.26,136Z"></path><path d="M216.77,148.71l0,.56,2.59,1.43h0l-.1-2.52A5.58,5.58,0,0,1,216.77,148.71Z"></path><path d="M214.48,146.84l-2.58-1.42a2.78,2.78,0,0,0,1.06,1.46c.44.3,2.12,1.17,2.62,1.46A2.92,2.92,0,0,1,214.48,146.84Z"></path><path d="M222.4,140.8a.61.61,0,0,0-.59-.36,7.11,7.11,0,0,0-2.12.49l-.08,0a4.1,4.1,0,0,1-1.45,1.37,4.16,4.16,0,0,1-1,.45l1.12.62c.23,1,1.05,1.2,2.46.35a3,3,0,0,0,1.75-2.48A1.43,1.43,0,0,0,222.4,140.8Z"></path><polygon points="215.7 126.94 218.28 128.37 218.38 130.89 215.79 129.46 215.7 126.94"></polygon></g><path d="M218.3,128.93l.08,2s-1.56.65-3.24,3.59c-.07.12-.13.24-.19.36a7.86,7.86,0,0,0-1,4v0c.06,1.49.55,2.26,1.27,2.59l.2.08h0l.21.06a.69.69,0,0,0,.2,0H216l.16,0a5.83,5.83,0,0,0,1.41-.13l.73-.18,1-.31.4-.13a6.52,6.52,0,0,1,2.12-.49.61.61,0,0,1,.59.36,1.43,1.43,0,0,1,.1.47,3,3,0,0,1-1.75,2.48c-1.41.85-2.23.63-2.46-.35l-3.81,3.44c.68,1.92,2.31,2.39,4.8,1.34l.1,2.52,3.18-1.91-.1-2.52a11.6,11.6,0,0,0,3.12-3.48l0,0a8,8,0,0,0,1.05-4.22c-.13-3.31-2.2-3.19-4.39-2.55s-3.85,1.61-3.92,0a3,3,0,0,1,1.69-2.51c1.66-1,2.36-.15,2.53.69l4-3.59a4.33,4.33,0,0,0-.46-1.1,2.25,2.25,0,0,0-1.32-1,5.06,5.06,0,0,0-3.26.53l-.1-2.53-3.15,1.89Z" style="fill:#40A2FF"></path><polygon points="222.56 148.78 219.38 150.69 219.28 148.18 219.68 150.15 222.56 148.78" style="fill:#f5f5f5"></polygon><path d="M218.29,143.4l-3.81,3.44,3.57-3s.45,1.78,2.7-.07c-1.41.85-2.23.63-2.46-.35" style="fill:#f5f5f5"></path><path d="M226.57,130.57a4.33,4.33,0,0,0-.46-1.1,2.25,2.25,0,0,0-1.32-1,2.55,2.55,0,0,1,1.43,2.15l-3.66,3.54Z" style="fill:#f5f5f5"></path><polygon points="221.53 129 221.18 126.91 218.28 128.37 221.43 126.48 221.53 129" style="fill:#f5f5f5"></polygon><path d="M216.42,162.93c8-3.61,15.09-14,15.09-14-4.21,6.75-9.51,11.9-14.9,14.49-5.18,2.49-9.78,2.31-13-.51C203.63,162.89,208.26,166.6,216.42,162.93Z" style="fill:#f5f5f5"></path><path d="M204.56,128.26c4.27-7.57,10.24-13.94,16.6-17,6.61-3.18,12.21-2.09,15.59,2.18,0,0-5.68-6.68-15.63-1.53S204.56,128.26,204.56,128.26Z" style="fill:#f5f5f5"></path><path d="M163.57,153.69a84.73,84.73,0,0,1-.17-15.41c7.4-7.47,5.86-16,2.49-21.47-6.92-11.2-15.7-15.39-15.7-15.39l-11.56-.35c-1.63.18-15.84,2.24-17.65,2.71,0,0-4.89,4.14-6.22,8.9-.76,2.71-1,5.41,1.49,14.24l6,15.33s1.75,4.6.86,7.81c-.93,3.38-5.79,11.24-8.36,19,0,0,11,9.83,31.1,7.55,17.21-2,19.71-7.74,19.71-7.74S163.78,156.83,163.57,153.69Z" style="fill:#40A2FF"></path><path d="M131.18,135.19a12.34,12.34,0,0,0,11.89,6.19,13,13,0,0,0,10.86-7.22s-.08,9.08-10.8,9.4S131.18,135.19,131.18,135.19Z" style="opacity:0.1"></path><g id="freepik--Arm--inject-227"><path d="M208.86,134.49a5.84,5.84,0,0,0-1.07-3.53,1.39,1.39,0,0,0-1-.69,2,2,0,0,0-1.44.65c-1.48,1.3-2.74,2.8-4.29,4.06a8.69,8.69,0,0,1-5.24,2.17,1.77,1.77,0,0,1,.42-1c.6-.84,1.05-1.43,1.7-2.34s1.38-2.12,1-3.36a.91.91,0,0,0-.64-.68,1.13,1.13,0,0,0-.78.21,30.31,30.31,0,0,0-5.92,3.87c-2,1.67-3.17,4.44-6.6,5.8s-7.12,1.69-13.47,2.52c-4.94.65-13.08,1.71-18.57,2.18-7.85-8-17.46-22.24-22.69-29.31-3.22-4.35-7-9.22-9.3-11.22-4.59,1.32-7.25,3.71-8.32,7-2.77,7.57,1.13,16.24,11.39,27.66,3.35,3.73,13.48,14.87,18.65,20.06a7.51,7.51,0,0,0,5.89,2.23,85.64,85.64,0,0,0,9.21-1.53c5.66-1.33,12.84-3.42,18.48-4.79,4.57-1.12,9.31-2.45,13.19-3.59a67,67,0,0,0,7.78-2.6,24.57,24.57,0,0,0,6-3.18,12.89,12.89,0,0,0,3.15-3.1,14.57,14.57,0,0,0,1.71-3.73A12.08,12.08,0,0,0,208.86,134.49Z" style="fill:#ffa8a7"></path></g><path d="M123,58.25c-3.4.36-5.64,2.37-7.3,5.5a19.26,19.26,0,0,0-1.54,12.51A24.56,24.56,0,0,0,120,88a75.39,75.39,0,0,0,10.17,9.8c3.24,2.73,8.24,0,10.83-2.26,4-3.48,8.08-6.9,12.41-10,3.24-2.29,6.78-4.57,8.44-8.18,1.42-3.1,1.38-8.39-1.55-10.69a22.81,22.81,0,0,0,3.52-6.17,8,8,0,0,0-.6-6.86,8.61,8.61,0,0,0-5.43-3.26,60.91,60.91,0,0,0-8.21-.84c-3-.23-6-.44-8.95-.56a24,24,0,0,0-8,.65A15,15,0,0,0,126.88,53a19.92,19.92,0,0,0-2.28,2.49C124.46,55.71,122.82,58.23,123,58.25Z" style="fill:#455a64"></path><path d="M124.51,58.62a4.58,4.58,0,0,0-.89-2.16,12.71,12.71,0,0,0-9.19-4.8,14.28,14.28,0,0,0-9.25,2.84,24.35,24.35,0,0,0-5.65,7.37c-1.62,2.89-3.27,6.2-6.09,7.94-4.16,2.56-9.44,2.4-14.24,1.53a10.09,10.09,0,0,0,10,9.28,6.31,6.31,0,0,1-4.53.8c3,5,11.05,4.3,15.6,2.12a16.25,16.25,0,0,0,8.1-8.86c1-2.58,1.24-5.36,2.06-8s2.37-5.25,4.9-6.32a9.91,9.91,0,0,1,5.76-.24C122.41,60.39,124.63,60.7,124.51,58.62Z" style="fill:#455a64"></path><path d="M152.2,59.34c2.68,1.37,6.27,7.66,6.81,21.28.46,11.55-3.1,14.63-4.93,15.57s-5.47.66-9,.3l.37,5.78s10.24,7.38,2.22,8.91c-4,.77-9-.53-12.61-3a17.55,17.55,0,0,1-5-4.86L129.2,89s-1.94,2.14-5.65-.71c-3-2.35-4.3-6.56-2.18-9a5.06,5.06,0,0,1,8.13,1.1s2.14,1.08,4-2.89a23.7,23.7,0,0,0,9.7-3.87A21.62,21.62,0,0,0,152.2,59.34Z" style="fill:#ffa8a7"></path><path d="M143.89,77.93a1.45,1.45,0,1,1-2.89.31,1.47,1.47,0,0,1,1.27-1.65A1.49,1.49,0,0,1,143.89,77.93Z" style="fill:#263238"></path><path d="M144.12,86.68l5.55,1.58a2.83,2.83,0,0,1-3.51,2.08A3,3,0,0,1,144.12,86.68Z" style="fill:#b16668"></path><path d="M147.42,90.39a2.67,2.67,0,0,0-2.81-2.49,2.26,2.26,0,0,0-.53.08,3,3,0,0,0,2.08,2.36A2.58,2.58,0,0,0,147.42,90.39Z" style="fill:#f28f8f"></path><path d="M156.71,72.59l-3.06-1.85a1.72,1.72,0,0,1,2.41-.65A1.87,1.87,0,0,1,156.71,72.59Z" style="fill:#263238"></path><path d="M141.53,72.59l-3.25,1.49a1.71,1.71,0,0,1,.82-2.35A1.88,1.88,0,0,1,141.53,72.59Z" style="fill:#263238"></path><path d="M156.18,76.84a1.45,1.45,0,1,1-1.62-1.34A1.48,1.48,0,0,1,156.18,76.84Z" style="fill:#263238"></path><polygon points="149.17 76.44 149.94 85.16 154.45 83.45 149.17 76.44" style="fill:#f28f8f"></polygon><path d="M145.05,96.49c-3.73-.26-11.5-2-12.88-4.91a7.86,7.86,0,0,0,2.92,3.68c2.4,1.81,10.11,3.54,10.11,3.54Z" style="fill:#f28f8f"></path><path d="M129.5,80.35l.38,6.06h0A4.13,4.13,0,0,0,133.75,82l-.35-5.6Z" style="fill:#455a64"></path></g></g><g id="freepik--Coins--inject-227"><g id="freepik--coins--inject-227"><path d="M251,360.26a16.68,16.68,0,0,0-6.15-5.68c-10-5.8-26.34-5.8-36.39,0a16.72,16.72,0,0,0-6.14,5.68h-1.39v5.26h0c.18,3.66,2.68,7.28,7.52,10.07,10,5.8,26.34,5.8,36.38,0,4.84-2.79,7.36-6.41,7.54-10.07h0v-5.26Z" style="fill:#40A2FF"></path><g style="opacity:0.25"><path d="M251,360.26a16.68,16.68,0,0,0-6.15-5.68c-10-5.8-26.34-5.8-36.39,0a16.72,16.72,0,0,0-6.14,5.68h-1.39v5.26h0c.18,3.66,2.68,7.28,7.52,10.07,10,5.8,26.34,5.8,36.38,0,4.84-2.79,7.36-6.41,7.54-10.07h0v-5.26Z"></path></g><path d="M226.67,350.23c-6.58,0-13.17,1.45-18.19,4.35a16.68,16.68,0,0,0-6.15,5.68h-1.39v5.26h0c.18,3.66,2.68,7.28,7.52,10.07,5,2.9,11.61,4.35,18.19,4.35Z" style="opacity:0.1"></path><path d="M212.62,352.64a27.62,27.62,0,0,0-4.14,1.94,16.68,16.68,0,0,0-6.15,5.68h-1.39v5.26h0c.18,3.66,2.68,7.28,7.52,10.07a27.62,27.62,0,0,0,4.14,1.94Z" style="opacity:0.1"></path><path d="M240.72,352.64a27.62,27.62,0,0,1,4.14,1.94,16.68,16.68,0,0,1,6.15,5.68h1.39v5.26h0c-.18,3.66-2.7,7.28-7.54,10.07a27.62,27.62,0,0,1-4.14,1.94Z" style="fill:#40A2FF"></path><path d="M244.86,349.76c-10-5.8-26.34-5.8-36.39,0s-10,15.21,0,21,26.34,5.8,36.38,0S254.91,355.56,244.86,349.76Z" style="fill:#40A2FF"></path><path d="M244.86,349.76c-10-5.8-26.34-5.8-36.39,0s-10,15.21,0,21,26.34,5.8,36.38,0S254.91,355.56,244.86,349.76Z" style="opacity:0.2"></path><path d="M238.52,353.61a29,29,0,0,0-23.7,0c-3.37,1.72-5.22,4.09-5.22,6.66s1.85,4.93,5.22,6.66a29,29,0,0,0,23.7,0c3.36-1.73,5.22-4.09,5.22-6.66S241.88,355.33,238.52,353.61Z" style="fill:#40A2FF"></path><path d="M238.52,353.61a29,29,0,0,0-23.7,0c-3.37,1.72-5.22,4.09-5.22,6.66s1.85,4.93,5.22,6.66a29,29,0,0,0,23.7,0c3.36-1.73,5.22-4.09,5.22-6.66S241.88,355.33,238.52,353.61Z" style="opacity:0.4"></path><path d="M244.31,350.73c-4.7-2.71-11-4.2-17.64-4.2S213.73,348,209,350.73c-4.5,2.6-7,6-7,9.54s2.48,6.94,7,9.53c4.69,2.71,11,4.2,17.63,4.2s12.94-1.49,17.64-4.2c4.49-2.59,7-6,7-9.53S248.8,353.33,244.31,350.73Zm-5.79,16.2a29,29,0,0,1-23.7,0c-3.37-1.73-5.22-4.09-5.22-6.66s1.85-4.94,5.22-6.66a29,29,0,0,1,23.7,0c3.36,1.72,5.22,4.09,5.22,6.66S241.88,365.2,238.52,366.93Z" style="fill:#40A2FF"></path><path d="M238.11,366.14c6.32-3.25,6.32-8.5,0-11.75s-16.56-3.24-22.88,0-6.32,8.5,0,11.75S231.79,369.38,238.11,366.14Z" style="opacity:0.2"></path><path d="M238.11,366.14c6.32-3.25,6.32-8.5,0-11.75s-16.56-3.24-22.88,0-6.32,8.5,0,11.75S231.79,369.38,238.11,366.14Z" style="fill:#40A2FF"></path><path d="M238.11,366.14c6.32-3.25,6.32-8.5,0-11.75s-16.56-3.24-22.88,0-6.32,8.5,0,11.75S231.79,369.38,238.11,366.14Z" style="opacity:0.6000000000000001"></path><path d="M238.11,356.59c-6.32-3.24-16.56-3.24-22.88,0-2.62,1.34-4.15,3-4.6,4.78.45,1.74,2,3.43,4.6,4.77,6.32,3.24,16.56,3.24,22.88,0,2.62-1.34,4.15-3,4.6-4.77C242.26,359.62,240.73,357.93,238.11,356.59Z" style="fill:#40A2FF"></path><path d="M238.11,356.59c-6.32-3.24-16.56-3.24-22.88,0-2.62,1.34-4.15,3-4.6,4.78.45,1.74,2,3.43,4.6,4.77,6.32,3.24,16.56,3.24,22.88,0,2.62-1.34,4.15-3,4.6-4.77C242.26,359.62,240.73,357.93,238.11,356.59Z" style="opacity:0.5"></path><polygon points="228.2 354.52 228.2 356.89 227.39 357.75 225.89 359.32 225.89 356.85 228.2 354.52" style="fill:#40A2FF"></polygon><polygon points="228.2 354.52 228.2 356.89 227.39 357.75 225.89 359.32 225.89 356.85 228.2 354.52" style="opacity:0.30000000000000004"></polygon><path d="M225.89,356.84v1.41a12.75,12.75,0,0,1-2.3.65,2.19,2.19,0,0,1-1.46-.23c-.57-.34-.66-.85.43-1.48A3.82,3.82,0,0,1,225.89,356.84Z" style="fill:#40A2FF"></path><path d="M225.89,356.84v1.41a12.75,12.75,0,0,1-2.3.65,2.19,2.19,0,0,1-1.46-.23c-.57-.34-.66-.85.43-1.48A3.82,3.82,0,0,1,225.89,356.84Z" style="opacity:0.45"></path><path d="M236.64,363.58v2.05l-2.6,1.5L232.12,366a9.79,9.79,0,0,1-7.43.34v-2.05l1.18-1.17-1.18.32a7.6,7.6,0,0,1-5.79-.66c-1.17-.67-1.71-1.41-1.7-2.16v-2l.21-.87-.71-.41v-2.05l1.92,1.11a2.91,2.91,0,0,0-1.42,2.2v0c0,.74.56,1.45,1.7,2.11,2.52,1.46,5,1,7.31.24,2.13-.69,3.69-1.51,4.92-.8.76.44.53,1-.33,1.47a4.23,4.23,0,0,1-3.66.21l-2.45,2.44a8.9,8.9,0,0,0,1.35.39,10.08,10.08,0,0,0,6.08-.73l1.92,1.11Z" style="fill:#40A2FF"></path><path d="M217.2,358.62v0c0,.74.56,1.45,1.7,2.11,2.52,1.46,5,1,7.31.24,2.13-.69,3.69-1.51,4.92-.8.76.44.53,1-.33,1.47a4.23,4.23,0,0,1-3.66.21l-2.45,2.44a8.9,8.9,0,0,0,1.35.39,10.08,10.08,0,0,0,6.08-.73l1.92,1.11,2.6-1.5v2.05l-2.6,1.5L232.12,366a9.79,9.79,0,0,1-7.43.34v-2.05l1.18-1.17-1.18.32a7.6,7.6,0,0,1-5.79-.66c-1.17-.67-1.71-1.41-1.7-2.16v-2l.21-.87" style="opacity:0.35000000000000003"></path><path d="M216.7,355.31v2.05l.71.41h0a4.18,4.18,0,0,1,1.22-1.36Z" style="opacity:0.45"></path><path d="M236.21,362.25a2.39,2.39,0,0,1-.2,1l-1.3-.74a2.58,2.58,0,0,0,1.48-2C236.2,361.07,236.21,362.19,236.21,362.25Z" style="fill:#40A2FF"></path><g style="opacity:0.30000000000000004"><path d="M236.21,362.25a2.39,2.39,0,0,1-.2,1l-1.3-.74a2.58,2.58,0,0,0,1.48-2C236.2,361.07,236.21,362.19,236.21,362.25Z"></path></g><path d="M236.2,363.34l-1.48-.87a2.52,2.52,0,0,0,1.48-2.27,1.27,1.27,0,0,0,0-.2,2.81,2.81,0,0,0-1.66-2h0a6.75,6.75,0,0,0-3.45-.9h-.64l-.27,0h-.11l-.2,0a12.81,12.81,0,0,0-1.68.35c-.27.07-.53.14-.79.23l-1.08.35-.42.14a12.93,12.93,0,0,1-2.3.66,2.48,2.48,0,0,1-1,0,2,2,0,0,1-.46-.19c-.58-.34-.67-.85.42-1.48a3.81,3.81,0,0,1,3.33-.34l2.31-2.33a9.84,9.84,0,0,0-7,.39l-1.92-1.11-2.62,1.51,1.92,1.11a3,3,0,0,0-1.43,2.2v0c0,.74.57,1.45,1.71,2.11,2.52,1.46,5,1,7.32.24,2.12-.7,3.67-1.51,4.9-.81.77.45.54,1-.32,1.48a4.23,4.23,0,0,1-3.66.21l-2.46,2.44a10.9,10.9,0,0,0,1.36.4,9.64,9.64,0,0,0,2.37.17,11,11,0,0,0,3.71-.91l1.92,1.11,2.59-1.49Z" style="fill:#40A2FF"></path><polygon points="232.12 363.97 232.12 366.02 234.04 367.13 234.04 365.08 232.12 363.97" style="fill:#40A2FF"></polygon><polygon points="232.12 363.97 232.12 366.02 234.04 367.13 234.04 365.08 232.12 363.97" style="opacity:0.45"></polygon><polygon points="216.7 355.31 219.32 353.8 221.24 354.9 219.33 354.11 216.7 355.31" style="fill:#f5f5f5"></polygon><path d="M222.56,357.19a3.81,3.81,0,0,1,3.33-.34l2.31-2.33-2.31,2.09A3.47,3.47,0,0,0,222.56,357.19Z" style="fill:#f5f5f5"></path><path d="M224.68,364.31a10.9,10.9,0,0,0,1.36.4,9.64,9.64,0,0,0,2.37.17,8.3,8.3,0,0,1-3.34-.67l2.07-2.34Z" style="fill:#f5f5f5"></path><polygon points="232.12 363.97 234.04 364.84 236.63 363.59 234.04 365.08 232.12 363.97" style="fill:#f5f5f5"></polygon><path d="M209.23,351.08c6.82-4.14,17.44-4.55,17.44-4.55-6.68,0-12.94,1.49-17.63,4.2-4.5,2.6-7,6-7,9.54C202.06,360.27,202.3,355.29,209.23,351.08Z" style="fill:#f5f5f5"></path><path d="M224.68,375.08c7.23.32,14.66-1.12,20.18-4.31,5.76-3.32,8.22-7.82,7.38-12.15,0,0,1.08,7.06-7.81,11.89S224.68,375.08,224.68,375.08Z" style="fill:#f5f5f5"></path><path d="M249.25,352.83a16.51,16.51,0,0,0-6.15-5.68c-10-5.81-26.34-5.81-36.39,0a16.59,16.59,0,0,0-6.15,5.68h-1.39v5.26h0c.19,3.65,2.69,7.28,7.52,10.07,10,5.8,26.34,5.8,36.39,0,4.83-2.79,7.35-6.42,7.54-10.07h0v-5.26Z" style="fill:#40A2FF"></path><g style="opacity:0.25"><path d="M249.25,352.83a16.51,16.51,0,0,0-6.15-5.68c-10-5.81-26.34-5.81-36.39,0a16.59,16.59,0,0,0-6.15,5.68h-1.39v5.26h0c.19,3.65,2.69,7.28,7.52,10.07,10,5.8,26.34,5.8,36.39,0,4.83-2.79,7.35-6.42,7.54-10.07h0v-5.26Z"></path></g><path d="M224.91,342.8c-6.59,0-13.17,1.45-18.2,4.35a16.59,16.59,0,0,0-6.15,5.68h-1.39v5.26h0c.19,3.65,2.69,7.28,7.52,10.07,5,2.9,11.61,4.35,18.2,4.35Z" style="opacity:0.1"></path><path d="M210.85,345.21a27.56,27.56,0,0,0-4.14,1.94,16.59,16.59,0,0,0-6.15,5.68h-1.39v5.26h0c.19,3.65,2.69,7.28,7.52,10.07a29.67,29.67,0,0,0,4.14,1.94Z" style="opacity:0.1"></path><path d="M239,345.21a27.56,27.56,0,0,1,4.14,1.94,16.51,16.51,0,0,1,6.15,5.68h1.39v5.26h0c-.19,3.65-2.71,7.28-7.54,10.07A29.67,29.67,0,0,1,239,370.1Z" style="fill:#40A2FF"></path><path d="M243.1,342.33c-10-5.8-26.34-5.8-36.39,0s-10.05,15.21,0,21,26.34,5.8,36.39,0S253.15,348.13,243.1,342.33Z" style="fill:#40A2FF"></path><path d="M243.1,342.33c-10-5.8-26.34-5.8-36.39,0s-10.05,15.21,0,21,26.34,5.8,36.39,0S253.15,348.13,243.1,342.33Z" style="opacity:0.2"></path><path d="M236.76,346.17a29,29,0,0,0-23.7,0c-3.37,1.73-5.23,4.1-5.23,6.66s1.86,4.94,5.23,6.66a29,29,0,0,0,23.7,0c3.36-1.72,5.21-4.09,5.21-6.66S240.12,347.9,236.76,346.17Z" style="fill:#40A2FF"></path><path d="M236.76,346.17a29,29,0,0,0-23.7,0c-3.37,1.73-5.23,4.1-5.23,6.66s1.86,4.94,5.23,6.66a29,29,0,0,0,23.7,0c3.36-1.72,5.21-4.09,5.21-6.66S240.12,347.9,236.76,346.17Z" style="opacity:0.4"></path><path d="M242.54,343.3c-4.69-2.71-11-4.21-17.64-4.21a35.86,35.86,0,0,0-17.63,4.21c-4.5,2.6-7,6-7,9.53s2.47,6.94,7,9.54a36,36,0,0,0,17.63,4.2c6.68,0,12.95-1.5,17.64-4.2,4.5-2.6,7-6,7-9.54S247,345.9,242.54,343.3Zm-5.78,16.19a29,29,0,0,1-23.7,0c-3.37-1.72-5.23-4.09-5.23-6.66s1.86-4.93,5.23-6.66a29,29,0,0,1,23.7,0c3.36,1.73,5.21,4.1,5.21,6.66S240.12,357.77,236.76,359.49Z" style="fill:#40A2FF"></path><path d="M236.35,358.7c6.32-3.24,6.32-8.5,0-11.74s-16.57-3.24-22.89,0-6.32,8.5,0,11.74S230,362,236.35,358.7Z" style="opacity:0.2"></path><path d="M236.35,358.7c6.32-3.24,6.32-8.5,0-11.74s-16.57-3.24-22.89,0-6.32,8.5,0,11.74S230,362,236.35,358.7Z" style="fill:#40A2FF"></path><path d="M236.35,358.7c6.32-3.24,6.32-8.5,0-11.74s-16.57-3.24-22.89,0-6.32,8.5,0,11.74S230,362,236.35,358.7Z" style="opacity:0.6000000000000001"></path><path d="M236.35,349.16c-6.32-3.24-16.57-3.24-22.89,0-2.61,1.34-4.14,3-4.59,4.77.45,1.75,2,3.43,4.59,4.77,6.32,3.25,16.57,3.25,22.89,0,2.61-1.34,4.14-3,4.59-4.77C240.49,352.19,239,350.5,236.35,349.16Z" style="fill:#40A2FF"></path><path d="M236.35,349.16c-6.32-3.24-16.57-3.24-22.89,0-2.61,1.34-4.14,3-4.59,4.77.45,1.75,2,3.43,4.59,4.77,6.32,3.25,16.57,3.25,22.89,0,2.61-1.34,4.14-3,4.59-4.77C240.49,352.19,239,350.5,236.35,349.16Z" style="opacity:0.5"></path><polygon points="226.44 347.09 226.44 349.46 225.63 350.31 224.13 351.88 224.13 349.41 226.44 347.09" style="fill:#40A2FF"></polygon><polygon points="226.44 347.09 226.44 349.46 225.63 350.31 224.13 351.88 224.13 349.41 226.44 347.09" style="opacity:0.30000000000000004"></polygon><path d="M224.13,349.41v1.4a14.13,14.13,0,0,1-2.3.66,2.68,2.68,0,0,1-1,0,2.72,2.72,0,0,1-.47-.19c-.57-.35-.66-.85.42-1.48A3.81,3.81,0,0,1,224.13,349.41Z" style="fill:#40A2FF"></path><path d="M224.13,349.41v1.4a14.13,14.13,0,0,1-2.3.66,2.68,2.68,0,0,1-1,0,2.72,2.72,0,0,1-.47-.19c-.57-.35-.66-.85.42-1.48A3.81,3.81,0,0,1,224.13,349.41Z" style="opacity:0.45"></path><path d="M234.87,356.15v2.05l-2.59,1.5-1.92-1.11a9.82,9.82,0,0,1-7.44.33v-2.05l1.18-1.17-1.18.33a7.56,7.56,0,0,1-5.79-.67c-1.16-.67-1.7-1.4-1.7-2.16v-2l.21-.87-.71-.42v-2.05l1.92,1.11a3,3,0,0,0-1.42,2.21v0c0,.74.57,1.45,1.7,2.11,2.53,1.45,5,1,7.32.24,2.13-.7,3.68-1.51,4.91-.81.76.45.53,1-.32,1.48a4.3,4.3,0,0,1-3.66.21l-2.46,2.43a8,8,0,0,0,1.36.4,10.17,10.17,0,0,0,6.08-.73l1.92,1.11Z" style="fill:#40A2FF"></path><path d="M215.43,351.19v0c0,.74.57,1.45,1.7,2.11,2.53,1.45,5,1,7.32.24,2.13-.7,3.68-1.51,4.91-.81.76.45.53,1-.32,1.48a4.3,4.3,0,0,1-3.66.21l-2.46,2.43a8,8,0,0,0,1.36.4,10.17,10.17,0,0,0,6.08-.73l1.92,1.11,2.59-1.5v2.05l-2.59,1.5-1.92-1.11a9.82,9.82,0,0,1-7.44.33v-2.05l1.18-1.17-1.18.33a7.56,7.56,0,0,1-5.79-.67c-1.16-.67-1.7-1.4-1.7-2.16v-2l.21-.87" style="opacity:0.35000000000000003"></path><path d="M214.93,347.87v2.05l.71.42h0a4.36,4.36,0,0,1,1.21-1.36Z" style="opacity:0.45"></path><path d="M234.44,354.81a2.41,2.41,0,0,1-.19,1L233,355a2.53,2.53,0,0,0,1.47-2C234.43,353.63,234.44,354.76,234.44,354.81Z" style="fill:#40A2FF"></path><g style="opacity:0.30000000000000004"><path d="M234.44,354.81a2.41,2.41,0,0,1-.19,1L233,355a2.53,2.53,0,0,0,1.47-2C234.43,353.63,234.44,354.76,234.44,354.81Z"></path></g><path d="M234.44,355.9,233,355a2.53,2.53,0,0,0,1.49-2.28c0-.07,0-.13,0-.2a2.84,2.84,0,0,0-1.66-2h0a6.81,6.81,0,0,0-3.46-.9H229l-.3,0-.27,0h-.11l-.21,0a12.81,12.81,0,0,0-1.68.34l-.78.23-1.09.36-.41.14a13.17,13.17,0,0,1-2.3.66,2.47,2.47,0,0,1-1,0,2.14,2.14,0,0,1-.47-.2c-.57-.33-.66-.84.42-1.47a3.81,3.81,0,0,1,3.34-.35l2.31-2.32a9.92,9.92,0,0,0-7,.38l-1.92-1.1-2.62,1.51,1.93,1.1a3,3,0,0,0-1.43,2.21v0c0,.74.57,1.45,1.7,2.11,2.53,1.46,5,1,7.32.23,2.13-.69,3.68-1.51,4.91-.8.76.44.53,1-.32,1.47a4.24,4.24,0,0,1-3.66.22l-2.46,2.43a8,8,0,0,0,1.36.4,9.16,9.16,0,0,0,2.37.18,11,11,0,0,0,3.7-.91l1.93,1.11,2.59-1.5Z" style="fill:#40A2FF"></path><polygon points="230.36 356.54 230.36 358.59 232.28 359.7 232.28 357.65 230.36 356.54" style="fill:#40A2FF"></polygon><polygon points="230.36 356.54 230.36 358.59 232.28 359.7 232.28 357.65 230.36 356.54" style="opacity:0.45"></polygon><polygon points="214.93 347.88 217.55 346.37 219.47 347.47 217.57 346.67 214.93 347.88" style="fill:#f5f5f5"></polygon><path d="M220.79,349.76a3.81,3.81,0,0,1,3.34-.35l2.31-2.32-2.31,2.08A3.51,3.51,0,0,0,220.79,349.76Z" style="fill:#f5f5f5"></path><path d="M222.92,356.87a8,8,0,0,0,1.36.4,9.16,9.16,0,0,0,2.37.18,8.5,8.5,0,0,1-3.34-.67l2.07-2.34Z" style="fill:#f5f5f5"></path><polygon points="230.36 356.54 232.28 357.4 234.87 356.15 232.28 357.65 230.36 356.54" style="fill:#f5f5f5"></polygon><path d="M207.47,343.64c6.81-4.13,17.43-4.55,17.43-4.55a35.86,35.86,0,0,0-17.63,4.21c-4.5,2.6-7,6-7,9.53C200.3,352.83,200.54,347.85,207.47,343.64Z" style="fill:#f5f5f5"></path><path d="M222.92,367.64c7.23.33,14.65-1.11,20.18-4.3,5.75-3.32,8.21-7.82,7.38-12.15,0,0,1.07,7.05-7.81,11.88S222.92,367.64,222.92,367.64Z" style="fill:#f5f5f5"></path><path d="M252.93,345.64a16.61,16.61,0,0,0-6.15-5.69c-10.05-5.8-26.34-5.8-36.39,0a16.58,16.58,0,0,0-6.14,5.69h-1.39v5.25h0c.19,3.66,2.69,7.28,7.52,10.07,10.05,5.8,26.34,5.8,36.39,0,4.83-2.79,7.35-6.41,7.54-10.07h0v-5.25Z" style="fill:#40A2FF"></path><g style="opacity:0.25"><path d="M252.93,345.64a16.61,16.61,0,0,0-6.15-5.69c-10.05-5.8-26.34-5.8-36.39,0a16.58,16.58,0,0,0-6.14,5.69h-1.39v5.25h0c.19,3.66,2.69,7.28,7.52,10.07,10.05,5.8,26.34,5.8,36.39,0,4.83-2.79,7.35-6.41,7.54-10.07h0v-5.25Z"></path></g><path d="M228.59,335.6c-6.59,0-13.17,1.45-18.2,4.35a16.58,16.58,0,0,0-6.14,5.69h-1.39v5.25h0c.19,3.66,2.69,7.28,7.52,10.07,5,2.9,11.61,4.35,18.2,4.35Z" style="opacity:0.1"></path><path d="M214.53,338a29.67,29.67,0,0,0-4.14,1.94,16.58,16.58,0,0,0-6.14,5.69h-1.39v5.25h0c.19,3.66,2.69,7.28,7.52,10.07a28.58,28.58,0,0,0,4.14,1.94Z" style="opacity:0.1"></path><path d="M242.64,338a29.15,29.15,0,0,1,4.14,1.94,16.61,16.61,0,0,1,6.15,5.69h1.39v5.25h0c-.19,3.66-2.71,7.28-7.54,10.07a28.09,28.09,0,0,1-4.14,1.94Z" style="fill:#40A2FF"></path><path d="M246.78,335.13c-10.05-5.8-26.34-5.8-36.39,0s-10,15.21,0,21,26.34,5.81,36.39,0S256.83,340.94,246.78,335.13Z" style="fill:#40A2FF"></path><path d="M246.78,335.13c-10.05-5.8-26.34-5.8-36.39,0s-10,15.21,0,21,26.34,5.81,36.39,0S256.83,340.94,246.78,335.13Z" style="opacity:0.2"></path><path d="M240.44,339a29,29,0,0,0-23.7,0c-3.37,1.72-5.22,4.09-5.22,6.66s1.85,4.93,5.22,6.66a29,29,0,0,0,23.7,0c3.36-1.73,5.22-4.09,5.22-6.66S243.8,340.7,240.44,339Z" style="fill:#40A2FF"></path><path d="M240.44,339a29,29,0,0,0-23.7,0c-3.37,1.72-5.22,4.09-5.22,6.66s1.85,4.93,5.22,6.66a29,29,0,0,0,23.7,0c3.36-1.73,5.22-4.09,5.22-6.66S243.8,340.7,240.44,339Z" style="opacity:0.4"></path><path d="M246.22,336.11c-4.69-2.71-11-4.21-17.63-4.21s-12.94,1.5-17.64,4.21c-4.5,2.59-7,6-7,9.53s2.47,6.94,7,9.54c4.7,2.7,11,4.19,17.64,4.19s12.94-1.49,17.63-4.19c4.5-2.6,7-6,7-9.54S250.72,338.7,246.22,336.11Zm-5.78,16.19a29,29,0,0,1-23.7,0c-3.37-1.73-5.22-4.09-5.22-6.66s1.85-4.94,5.22-6.66a29,29,0,0,1,23.7,0c3.36,1.72,5.22,4.09,5.22,6.66S243.8,350.57,240.44,352.3Z" style="fill:#40A2FF"></path><ellipse cx="228.59" cy="345.64" rx="16.18" ry="8.31" style="opacity:0.2"></ellipse><ellipse cx="228.59" cy="345.64" rx="16.18" ry="8.31" style="fill:#40A2FF"></ellipse><ellipse cx="228.59" cy="345.64" rx="16.18" ry="8.31" style="opacity:0.6000000000000001"></ellipse><path d="M240,342c-6.32-3.25-16.57-3.25-22.89,0-2.61,1.34-4.14,3-4.59,4.77.45,1.74,2,3.43,4.59,4.77,6.32,3.24,16.57,3.24,22.89,0,2.61-1.34,4.14-3,4.6-4.77C244.17,345,242.64,343.31,240,342Z" style="fill:#40A2FF"></path><path d="M240,342c-6.32-3.25-16.57-3.25-22.89,0-2.61,1.34-4.14,3-4.59,4.77.45,1.74,2,3.43,4.59,4.77,6.32,3.24,16.57,3.24,22.89,0,2.61-1.34,4.14-3,4.6-4.77C244.17,345,242.64,343.31,240,342Z" style="opacity:0.5"></path><polygon points="230.12 339.89 230.12 342.26 229.31 343.12 227.81 344.69 227.81 342.22 230.12 339.89" style="fill:#40A2FF"></polygon><polygon points="230.12 339.89 230.12 342.26 229.31 343.12 227.81 344.69 227.81 342.22 230.12 339.89" style="opacity:0.30000000000000004"></polygon><path d="M227.81,342.22v1.4a13,13,0,0,1-2.3.65,2.19,2.19,0,0,1-1.46-.23c-.57-.34-.66-.85.43-1.47A3.75,3.75,0,0,1,227.81,342.22Z" style="fill:#40A2FF"></path><path d="M227.81,342.22v1.4a13,13,0,0,1-2.3.65,2.19,2.19,0,0,1-1.46-.23c-.57-.34-.66-.85.43-1.47A3.75,3.75,0,0,1,227.81,342.22Z" style="opacity:0.45"></path><path d="M238.55,349V351L236,352.5,234,351.39a9.77,9.77,0,0,1-7.44.34v-2.05l1.18-1.17-1.18.32a7.6,7.6,0,0,1-5.79-.66c-1.16-.67-1.7-1.41-1.7-2.16v-2l.21-.87-.71-.41v-2.05l1.93,1.11a3,3,0,0,0-1.43,2.2v0c0,.74.57,1.46,1.7,2.11,2.53,1.46,5,1,7.32.24,2.13-.69,3.68-1.51,4.91-.8.76.44.53,1-.32,1.47a4.23,4.23,0,0,1-3.66.21l-2.46,2.44a10.42,10.42,0,0,0,1.36.4,10.08,10.08,0,0,0,6.08-.74l1.92,1.11Z" style="fill:#40A2FF"></path><path d="M219.11,344v0c0,.74.57,1.46,1.7,2.11,2.53,1.46,5,1,7.32.24,2.13-.69,3.68-1.51,4.91-.8.76.44.53,1-.32,1.47a4.23,4.23,0,0,1-3.66.21l-2.46,2.44a10.42,10.42,0,0,0,1.36.4,10.08,10.08,0,0,0,6.08-.74l1.92,1.11,2.59-1.49V351L236,352.5,234,351.39a9.77,9.77,0,0,1-7.44.34v-2.05l1.18-1.17-1.18.32a7.6,7.6,0,0,1-5.79-.66c-1.16-.67-1.7-1.41-1.7-2.16v-2l.21-.87" style="opacity:0.35000000000000003"></path><path d="M218.62,340.68v2.05l.7.41h0a4.18,4.18,0,0,1,1.22-1.36Z" style="opacity:0.45"></path><path d="M238.12,347.62a2.36,2.36,0,0,1-.19,1l-1.3-.74a2.55,2.55,0,0,0,1.47-2C238.11,346.44,238.12,347.56,238.12,347.62Z" style="fill:#40A2FF"></path><g style="opacity:0.30000000000000004"><path d="M238.12,347.62a2.36,2.36,0,0,1-.19,1l-1.3-.74a2.55,2.55,0,0,0,1.47-2C238.11,346.44,238.12,347.56,238.12,347.62Z"></path></g><path d="M238.12,348.71l-1.49-.86a2.53,2.53,0,0,0,1.49-2.28c0-.07,0-.14,0-.2a2.83,2.83,0,0,0-1.66-2h0a6.91,6.91,0,0,0-3.46-.9h-.32l-.31,0-.27,0-.11,0-.21,0a14.68,14.68,0,0,0-1.68.35l-.78.23-1.09.35-.41.14a12.34,12.34,0,0,1-2.3.66,2.31,2.31,0,0,1-1,0,1.86,1.86,0,0,1-.46-.19c-.58-.34-.67-.84.41-1.47a3.81,3.81,0,0,1,3.34-.35l2.31-2.33a9.84,9.84,0,0,0-7,.39l-1.93-1.11-2.61,1.51,1.92,1.11a3,3,0,0,0-1.43,2.2v0c0,.74.57,1.46,1.7,2.11,2.53,1.46,5,1,7.32.24,2.13-.69,3.68-1.51,4.91-.8.76.44.53,1-.32,1.47a4.23,4.23,0,0,1-3.66.21l-2.46,2.44a10.42,10.42,0,0,0,1.36.4,9.15,9.15,0,0,0,2.37.17,11.11,11.11,0,0,0,3.71-.91l1.92,1.12,2.59-1.5Z" style="fill:#40A2FF"></path><polygon points="234.04 349.34 234.04 351.39 235.96 352.5 235.96 350.45 234.04 349.34" style="fill:#40A2FF"></polygon><polygon points="234.04 349.34 234.04 351.39 235.96 352.5 235.96 350.45 234.04 349.34" style="opacity:0.45"></polygon><polygon points="218.62 340.68 221.23 339.17 223.16 340.28 221.25 339.48 218.62 340.68" style="fill:#f5f5f5"></polygon><path d="M224.47,342.57a3.81,3.81,0,0,1,3.34-.35l2.31-2.33L227.81,342A3.51,3.51,0,0,0,224.47,342.57Z" style="fill:#f5f5f5"></path><path d="M226.6,349.68a10.42,10.42,0,0,0,1.36.4,9.15,9.15,0,0,0,2.37.17,8.3,8.3,0,0,1-3.34-.67l2.07-2.34Z" style="fill:#f5f5f5"></path><polygon points="234.04 349.34 235.96 350.21 238.55 348.96 235.96 350.45 234.04 349.34" style="fill:#f5f5f5"></polygon><path d="M211.15,336.45c6.81-4.14,17.44-4.55,17.44-4.55-6.68,0-12.94,1.5-17.64,4.21-4.5,2.59-7,6-7,9.53C204,345.64,204.22,340.66,211.15,336.45Z" style="fill:#f5f5f5"></path><path d="M226.6,360.45c7.23.32,14.65-1.11,20.18-4.31,5.75-3.32,8.21-7.82,7.38-12.15,0,0,1.07,7.06-7.81,11.89S226.6,360.45,226.6,360.45Z" style="fill:#f5f5f5"></path><path d="M250.42,338.36a16.69,16.69,0,0,0-6.15-5.69c-10.05-5.8-26.34-5.8-36.39,0a16.61,16.61,0,0,0-6.15,5.69h-1.39v5.26h0c.19,3.65,2.69,7.27,7.52,10.06,10.05,5.81,26.34,5.81,36.39,0,4.83-2.79,7.35-6.41,7.54-10.06h0v-5.26Z" style="fill:#40A2FF"></path><g style="opacity:0.25"><path d="M250.42,338.36a16.69,16.69,0,0,0-6.15-5.69c-10.05-5.8-26.34-5.8-36.39,0a16.61,16.61,0,0,0-6.15,5.69h-1.39v5.26h0c.19,3.65,2.69,7.27,7.52,10.06,10.05,5.81,26.34,5.81,36.39,0,4.83-2.79,7.35-6.41,7.54-10.06h0v-5.26Z"></path></g><path d="M226.08,328.32c-6.59,0-13.18,1.45-18.2,4.35a16.61,16.61,0,0,0-6.15,5.69h-1.39v5.26h0c.19,3.65,2.69,7.27,7.52,10.06,5,2.9,11.61,4.36,18.2,4.35Z" style="opacity:0.1"></path><path d="M212,330.73a29.67,29.67,0,0,0-4.14,1.94,16.61,16.61,0,0,0-6.15,5.69h-1.39v5.26h0c.19,3.65,2.69,7.27,7.52,10.06a27.56,27.56,0,0,0,4.14,1.94Z" style="opacity:0.1"></path><path d="M240.13,330.73a29.67,29.67,0,0,1,4.14,1.94,16.69,16.69,0,0,1,6.15,5.69h1.39v5.26h0c-.19,3.65-2.71,7.27-7.54,10.06a27.56,27.56,0,0,1-4.14,1.94Z" style="fill:#40A2FF"></path><path d="M244.27,327.86c-10.05-5.81-26.34-5.81-36.39,0s-10,15.2,0,21,26.34,5.8,36.39,0S254.32,333.66,244.27,327.86Z" style="fill:#40A2FF"></path><path d="M244.27,327.86c-10.05-5.81-26.34-5.81-36.39,0s-10,15.2,0,21,26.34,5.8,36.39,0S254.32,333.66,244.27,327.86Z" style="opacity:0.2"></path><path d="M237.92,331.7a29,29,0,0,0-23.69,0c-3.37,1.73-5.23,4.09-5.23,6.66s1.86,4.93,5.23,6.66a29,29,0,0,0,23.69,0c3.37-1.73,5.22-4.09,5.22-6.66S241.29,333.43,237.92,331.7Z" style="fill:#40A2FF"></path><path d="M237.92,331.7a29,29,0,0,0-23.69,0c-3.37,1.73-5.23,4.09-5.23,6.66s1.86,4.93,5.23,6.66a29,29,0,0,0,23.69,0c3.37-1.73,5.22-4.09,5.22-6.66S241.29,333.43,237.92,331.7Z" style="opacity:0.4"></path><path d="M243.71,328.83c-4.69-2.71-11-4.21-17.64-4.21s-12.94,1.5-17.63,4.21c-4.5,2.6-7,6-7,9.53s2.48,6.94,7,9.54c4.69,2.7,10.95,4.2,17.63,4.2s13-1.5,17.64-4.2c4.5-2.6,7-6,7-9.54S248.21,331.43,243.71,328.83ZM237.92,345a29,29,0,0,1-23.69,0c-3.37-1.73-5.23-4.09-5.23-6.66s1.86-4.93,5.23-6.66a29,29,0,0,1,23.69,0c3.37,1.73,5.22,4.09,5.22,6.66S241.29,343.29,237.92,345Z" style="fill:#40A2FF"></path><ellipse cx="226.07" cy="338.36" rx="16.18" ry="8.31" style="opacity:0.2"></ellipse><ellipse cx="226.07" cy="338.36" rx="16.18" ry="8.31" style="fill:#40A2FF"></ellipse><ellipse cx="226.07" cy="338.36" rx="16.18" ry="8.31" style="opacity:0.6000000000000001"></ellipse><path d="M237.52,334.69c-6.32-3.25-16.57-3.25-22.89,0-2.61,1.34-4.14,3-4.59,4.77.45,1.75,2,3.43,4.59,4.77,6.32,3.25,16.57,3.25,22.89,0,2.61-1.34,4.14-3,4.59-4.77C241.66,337.71,240.13,336,237.52,334.69Z" style="fill:#40A2FF"></path><path d="M237.52,334.69c-6.32-3.25-16.57-3.25-22.89,0-2.61,1.34-4.14,3-4.59,4.77.45,1.75,2,3.43,4.59,4.77,6.32,3.25,16.57,3.25,22.89,0,2.61-1.34,4.14-3,4.59-4.77C241.66,337.71,240.13,336,237.52,334.69Z" style="opacity:0.5"></path><polygon points="227.61 332.61 227.61 334.99 226.8 335.84 225.3 337.41 225.3 334.94 227.61 332.61" style="fill:#40A2FF"></polygon><polygon points="227.61 332.61 227.61 334.99 226.8 335.84 225.3 337.41 225.3 334.94 227.61 332.61" style="opacity:0.30000000000000004"></polygon><path d="M225.3,334.94v1.4A13,13,0,0,1,223,337a2.44,2.44,0,0,1-1,0,2,2,0,0,1-.47-.2c-.57-.34-.67-.84.42-1.47A3.8,3.8,0,0,1,225.3,334.94Z" style="fill:#40A2FF"></path><path d="M225.3,334.94v1.4A13,13,0,0,1,223,337a2.44,2.44,0,0,1-1,0,2,2,0,0,1-.47-.2c-.57-.34-.67-.84.42-1.47A3.8,3.8,0,0,1,225.3,334.94Z" style="opacity:0.45"></path><path d="M236,341.68v2.05l-2.6,1.49-1.92-1.11a9.74,9.74,0,0,1-7.43.34V342.4l1.18-1.17-1.18.32a7.56,7.56,0,0,1-5.79-.66c-1.16-.67-1.7-1.4-1.7-2.16v-2l.21-.88-.71-.41V333.4l1.92,1.11a3,3,0,0,0-1.42,2.2v0c0,.73.57,1.45,1.7,2.1,2.53,1.46,5,1,7.32.25,2.13-.7,3.68-1.52,4.91-.81.76.44.53,1-.33,1.47a4.27,4.27,0,0,1-3.66.22l-2.45,2.43a10.42,10.42,0,0,0,1.36.4,10.12,10.12,0,0,0,6.07-.73l1.92,1.11Z" style="fill:#40A2FF"></path><path d="M216.6,336.71v0c0,.73.57,1.45,1.7,2.1,2.53,1.46,5,1,7.32.25,2.13-.7,3.68-1.52,4.91-.81.76.44.53,1-.33,1.47a4.27,4.27,0,0,1-3.66.22l-2.45,2.43a10.42,10.42,0,0,0,1.36.4,10.12,10.12,0,0,0,6.07-.73l1.92,1.11,2.6-1.5v2.05l-2.6,1.49-1.92-1.11a9.74,9.74,0,0,1-7.43.34V342.4l1.18-1.17-1.18.32a7.56,7.56,0,0,1-5.79-.66c-1.16-.67-1.7-1.4-1.7-2.16v-2l.21-.88" style="opacity:0.35000000000000003"></path><path d="M216.1,333.4v2.05l.71.41h0a4.12,4.12,0,0,1,1.21-1.36Z" style="opacity:0.45"></path><path d="M235.61,340.34a2.41,2.41,0,0,1-.19,1l-1.3-.75a2.55,2.55,0,0,0,1.47-2C235.6,339.16,235.61,340.28,235.61,340.34Z" style="fill:#40A2FF"></path><g style="opacity:0.30000000000000004"><path d="M235.61,340.34a2.41,2.41,0,0,1-.19,1l-1.3-.75a2.55,2.55,0,0,0,1.47-2C235.6,339.16,235.61,340.28,235.61,340.34Z"></path></g><path d="M235.61,341.43l-1.49-.86a2.53,2.53,0,0,0,1.49-2.28,1.36,1.36,0,0,0,0-.2c-.06-.7-.58-1.39-1.66-2h0a6.85,6.85,0,0,0-3.45-.9h-.33l-.31,0-.27,0-.11,0-.2,0a14.68,14.68,0,0,0-1.68.35l-.78.23-1.09.36-.41.14a12.17,12.17,0,0,1-2.3.65,2.3,2.3,0,0,1-1,0,1.93,1.93,0,0,1-.47-.19c-.58-.33-.67-.84.42-1.47a3.81,3.81,0,0,1,3.34-.35l2.31-2.33a9.93,9.93,0,0,0-7,.39l-1.92-1.11-2.62,1.51,1.93,1.11a3,3,0,0,0-1.43,2.21v0c0,.74.56,1.45,1.7,2.1,2.53,1.46,5,1,7.32.24,2.13-.69,3.68-1.51,4.91-.8.76.44.53,1-.33,1.47a4.21,4.21,0,0,1-3.65.21l-2.46,2.44a10.42,10.42,0,0,0,1.36.4,8.66,8.66,0,0,0,2.36.17,10.76,10.76,0,0,0,3.71-.9l1.93,1.11,2.59-1.5Z" style="fill:#40A2FF"></path><polygon points="231.52 342.07 231.52 344.12 233.45 345.22 233.45 343.18 231.52 342.07" style="fill:#40A2FF"></polygon><polygon points="231.52 342.07 231.52 344.12 233.45 345.22 233.45 343.18 231.52 342.07" style="opacity:0.45"></polygon><polygon points="216.1 333.4 218.72 331.89 220.64 333 218.74 332.2 216.1 333.4" style="fill:#f5f5f5"></polygon><path d="M222,335.29a3.81,3.81,0,0,1,3.34-.35l2.31-2.33-2.31,2.09A3.51,3.51,0,0,0,222,335.29Z" style="fill:#f5f5f5"></path><path d="M224.09,342.4a10.42,10.42,0,0,0,1.36.4,8.66,8.66,0,0,0,2.36.17,8.36,8.36,0,0,1-3.33-.66l2.07-2.35Z" style="fill:#f5f5f5"></path><polygon points="231.52 342.07 233.45 342.93 236.04 341.68 233.45 343.18 231.52 342.07" style="fill:#f5f5f5"></polygon><path d="M208.64,329.17c6.81-4.14,17.43-4.55,17.43-4.55-6.68,0-12.94,1.5-17.63,4.21-4.5,2.6-7,6-7,9.53C201.46,338.36,201.71,333.38,208.64,329.17Z" style="fill:#f5f5f5"></path><path d="M224.09,353.17c7.23.32,14.65-1.11,20.18-4.3,5.75-3.32,8.21-7.83,7.38-12.16,0,0,1.07,7.06-7.82,11.89S224.09,353.17,224.09,353.17Z" style="fill:#f5f5f5"></path></g><g id="freepik--coins--inject-227"><path d="M285.81,391.65a16.51,16.51,0,0,0-6.15-5.68c-10.05-5.81-26.34-5.81-36.39,0a16.59,16.59,0,0,0-6.15,5.68h-1.39v5.26h0c.19,3.65,2.69,7.28,7.52,10.07,10,5.8,26.34,5.8,36.39,0,4.83-2.79,7.35-6.42,7.54-10.07h0v-5.26Z" style="fill:#40A2FF"></path><g style="opacity:0.25"><path d="M285.81,391.65a16.51,16.51,0,0,0-6.15-5.68c-10.05-5.81-26.34-5.81-36.39,0a16.59,16.59,0,0,0-6.15,5.68h-1.39v5.26h0c.19,3.65,2.69,7.28,7.52,10.07,10,5.8,26.34,5.8,36.39,0,4.83-2.79,7.35-6.42,7.54-10.07h0v-5.26Z"></path></g><path d="M261.47,381.61c-6.59,0-13.17,1.45-18.2,4.36a16.59,16.59,0,0,0-6.15,5.68h-1.39v5.26h0c.19,3.65,2.69,7.28,7.52,10.07,5,2.9,11.61,4.35,18.2,4.35Z" style="opacity:0.1"></path><path d="M247.41,384a27.56,27.56,0,0,0-4.14,1.94,16.59,16.59,0,0,0-6.15,5.68h-1.39v5.26h0c.19,3.65,2.69,7.28,7.52,10.07a28.54,28.54,0,0,0,4.14,1.93Z" style="opacity:0.1"></path><path d="M275.52,384a27.56,27.56,0,0,1,4.14,1.94,16.51,16.51,0,0,1,6.15,5.68h1.39v5.26h0c-.19,3.65-2.71,7.28-7.54,10.07a28.54,28.54,0,0,1-4.14,1.93Z" style="fill:#40A2FF"></path><path d="M279.66,381.15c-10.05-5.8-26.34-5.8-36.39,0s-10.05,15.21,0,21,26.34,5.8,36.39,0S289.71,387,279.66,381.15Z" style="fill:#40A2FF"></path><path d="M279.66,381.15c-10.05-5.8-26.34-5.8-36.39,0s-10.05,15.21,0,21,26.34,5.8,36.39,0S289.71,387,279.66,381.15Z" style="opacity:0.2"></path><path d="M273.32,385a29,29,0,0,0-23.7,0c-3.37,1.73-5.22,4.1-5.22,6.66s1.85,4.94,5.22,6.66a29,29,0,0,0,23.7,0c3.36-1.72,5.21-4.09,5.21-6.66S276.68,386.72,273.32,385Z" style="fill:#40A2FF"></path><path d="M273.32,385a29,29,0,0,0-23.7,0c-3.37,1.73-5.22,4.1-5.22,6.66s1.85,4.94,5.22,6.66a29,29,0,0,0,23.7,0c3.36-1.72,5.21-4.09,5.21-6.66S276.68,386.72,273.32,385Z" style="opacity:0.4"></path><path d="M279.1,382.12c-4.69-2.71-11-4.21-17.63-4.21s-12.94,1.5-17.64,4.21c-4.5,2.6-7,6-7,9.53s2.47,6.94,7,9.54a36,36,0,0,0,17.64,4.2c6.67,0,12.94-1.5,17.63-4.2,4.5-2.6,7-6,7-9.54S283.6,384.72,279.1,382.12Zm-5.78,16.19a29,29,0,0,1-23.7,0c-3.37-1.72-5.22-4.09-5.22-6.66s1.85-4.93,5.22-6.66a29,29,0,0,1,23.7,0c3.36,1.73,5.21,4.1,5.21,6.66S276.68,396.59,273.32,398.31Z" style="fill:#40A2FF"></path><path d="M272.91,397.52c6.32-3.24,6.32-8.5,0-11.74s-16.57-3.24-22.89,0-6.32,8.5,0,11.74S266.59,400.77,272.91,397.52Z" style="opacity:0.2"></path><path d="M272.91,397.52c6.32-3.24,6.32-8.5,0-11.74s-16.57-3.24-22.89,0-6.32,8.5,0,11.74S266.59,400.77,272.91,397.52Z" style="fill:#40A2FF"></path><path d="M272.91,397.52c6.32-3.24,6.32-8.5,0-11.74s-16.57-3.24-22.89,0-6.32,8.5,0,11.74S266.59,400.77,272.91,397.52Z" style="opacity:0.6000000000000001"></path><path d="M272.91,388c-6.32-3.24-16.57-3.24-22.89,0-2.61,1.34-4.14,3-4.59,4.77.45,1.75,2,3.43,4.59,4.77,6.32,3.25,16.57,3.25,22.89,0,2.61-1.34,4.14-3,4.6-4.77C277.05,391,275.52,389.32,272.91,388Z" style="fill:#40A2FF"></path><path d="M272.91,388c-6.32-3.24-16.57-3.24-22.89,0-2.61,1.34-4.14,3-4.59,4.77.45,1.75,2,3.43,4.59,4.77,6.32,3.25,16.57,3.25,22.89,0,2.61-1.34,4.14-3,4.6-4.77C277.05,391,275.52,389.32,272.91,388Z" style="opacity:0.5"></path><polygon points="263 385.9 263 388.28 262.19 389.13 260.69 390.7 260.69 388.23 263 385.9" style="fill:#40A2FF"></polygon><polygon points="263 385.9 263 388.28 262.19 389.13 260.69 390.7 260.69 388.23 263 385.9" style="opacity:0.30000000000000004"></polygon><path d="M260.69,388.23v1.4a14.13,14.13,0,0,1-2.3.66,2.68,2.68,0,0,1-1,0,2.72,2.72,0,0,1-.47-.19c-.57-.35-.66-.85.42-1.48A3.81,3.81,0,0,1,260.69,388.23Z" style="fill:#40A2FF"></path><path d="M260.69,388.23v1.4a14.13,14.13,0,0,1-2.3.66,2.68,2.68,0,0,1-1,0,2.72,2.72,0,0,1-.47-.19c-.57-.35-.66-.85.42-1.48A3.81,3.81,0,0,1,260.69,388.23Z" style="opacity:0.45"></path><path d="M271.43,395v2l-2.59,1.5-1.92-1.11a9.82,9.82,0,0,1-7.44.33v-2.05l1.18-1.17-1.18.33a7.56,7.56,0,0,1-5.79-.67c-1.16-.67-1.7-1.4-1.7-2.16v-2l.21-.87-.71-.42v-2.05l1.93,1.11A3,3,0,0,0,252,390v0c0,.74.57,1.45,1.7,2.11,2.53,1.45,5,1,7.32.24,2.13-.7,3.68-1.51,4.91-.81.76.45.53,1-.32,1.48a4.3,4.3,0,0,1-3.66.21l-2.46,2.43a9.07,9.07,0,0,0,1.36.4,10.17,10.17,0,0,0,6.08-.73l1.92,1.11Z" style="fill:#40A2FF"></path><path d="M252,390v0c0,.74.57,1.45,1.7,2.11,2.53,1.45,5,1,7.32.24,2.13-.7,3.68-1.51,4.91-.81.76.45.53,1-.32,1.48a4.3,4.3,0,0,1-3.66.21l-2.46,2.43a9.07,9.07,0,0,0,1.36.4,10.17,10.17,0,0,0,6.08-.73l1.92,1.11,2.59-1.5v2l-2.59,1.5-1.92-1.11a9.82,9.82,0,0,1-7.44.33v-2.05l1.18-1.17-1.18.33a7.56,7.56,0,0,1-5.79-.67c-1.16-.67-1.7-1.4-1.7-2.16v-2l.21-.87" style="opacity:0.35000000000000003"></path><path d="M251.49,386.69v2.05l.71.42h0a4.28,4.28,0,0,1,1.22-1.36Z" style="opacity:0.45"></path><path d="M271,393.63a2.41,2.41,0,0,1-.19,1l-1.3-.75a2.53,2.53,0,0,0,1.47-2C271,392.45,271,393.58,271,393.63Z" style="fill:#40A2FF"></path><g style="opacity:0.30000000000000004"><path d="M271,393.63a2.41,2.41,0,0,1-.19,1l-1.3-.75a2.53,2.53,0,0,0,1.47-2C271,392.45,271,393.58,271,393.63Z"></path></g><path d="M271,394.72l-1.49-.86a2.53,2.53,0,0,0,1.49-2.28c0-.07,0-.13,0-.2a2.84,2.84,0,0,0-1.66-2h0a6.91,6.91,0,0,0-3.46-.9h-.32l-.31,0-.27,0h-.11l-.21,0a14.68,14.68,0,0,0-1.68.35l-.78.23-1.09.36-.41.14a12.17,12.17,0,0,1-2.3.65,2.32,2.32,0,0,1-1,0,1.89,1.89,0,0,1-.46-.2c-.58-.33-.67-.84.41-1.47a3.81,3.81,0,0,1,3.34-.35l2.31-2.32a9.92,9.92,0,0,0-7,.38l-1.92-1.1-2.62,1.51,1.93,1.1A3,3,0,0,0,252,390v0c0,.74.57,1.45,1.7,2.11,2.53,1.46,5,1,7.32.23,2.13-.69,3.68-1.51,4.91-.8.76.44.53,1-.32,1.47a4.24,4.24,0,0,1-3.66.22l-2.46,2.43a9.07,9.07,0,0,0,1.36.4,8.73,8.73,0,0,0,2.37.17,10.87,10.87,0,0,0,3.71-.9l1.92,1.11,2.59-1.5Z" style="fill:#40A2FF"></path><polygon points="266.92 395.36 266.92 397.41 268.84 398.52 268.84 396.47 266.92 395.36" style="fill:#40A2FF"></polygon><polygon points="266.92 395.36 266.92 397.41 268.84 398.52 268.84 396.47 266.92 395.36" style="opacity:0.45"></polygon><polygon points="251.5 386.7 254.11 385.19 256.04 386.29 254.13 385.49 251.5 386.7" style="fill:#f5f5f5"></polygon><path d="M257.35,388.58a3.81,3.81,0,0,1,3.34-.35l2.31-2.32L260.69,388A3.51,3.51,0,0,0,257.35,388.58Z" style="fill:#f5f5f5"></path><path d="M259.48,395.69a9.07,9.07,0,0,0,1.36.4,8.73,8.73,0,0,0,2.37.17,8.4,8.4,0,0,1-3.34-.66l2.07-2.34Z" style="fill:#f5f5f5"></path><polygon points="266.92 395.36 268.84 396.23 271.43 394.97 268.84 396.47 266.92 395.36" style="fill:#f5f5f5"></polygon><path d="M244,382.46c6.81-4.13,17.44-4.55,17.44-4.55-6.68,0-12.94,1.5-17.64,4.21-4.5,2.6-7,6-7,9.53C236.86,391.65,237.1,386.67,244,382.46Z" style="fill:#f5f5f5"></path><path d="M259.48,406.46c7.23.33,14.65-1.11,20.18-4.3,5.75-3.32,8.21-7.82,7.38-12.15,0,0,1.07,7.05-7.81,11.88S259.48,406.46,259.48,406.46Z" style="fill:#f5f5f5"></path><path d="M287.34,384.42a16.64,16.64,0,0,0-6.14-5.68c-10.05-5.8-26.34-5.8-36.39,0a16.68,16.68,0,0,0-6.15,5.68h-1.39v5.26h0c.18,3.66,2.69,7.28,7.52,10.07,10.05,5.8,26.34,5.8,36.39,0,4.83-2.79,7.35-6.41,7.53-10.07h0v-5.26Z" style="fill:#40A2FF"></path><g style="opacity:0.25"><path d="M287.34,384.42a16.64,16.64,0,0,0-6.14-5.68c-10.05-5.8-26.34-5.8-36.39,0a16.68,16.68,0,0,0-6.15,5.68h-1.39v5.26h0c.18,3.66,2.69,7.28,7.52,10.07,10.05,5.8,26.34,5.8,36.39,0,4.83-2.79,7.35-6.41,7.53-10.07h0v-5.26Z"></path></g><path d="M263,374.39c-6.58,0-13.17,1.45-18.19,4.35a16.68,16.68,0,0,0-6.15,5.68h-1.39v5.26h0c.19,3.66,2.69,7.28,7.52,10.07,5,2.9,11.61,4.35,18.19,4.35Z" style="opacity:0.1"></path><path d="M249,376.8a28.09,28.09,0,0,0-4.14,1.94,16.68,16.68,0,0,0-6.15,5.68h-1.39v5.26h0c.19,3.66,2.69,7.28,7.52,10.07a28.09,28.09,0,0,0,4.14,1.94Z" style="opacity:0.1"></path><path d="M277.06,376.8a28.58,28.58,0,0,1,4.14,1.94,16.64,16.64,0,0,1,6.14,5.68h1.39v5.26h0c-.18,3.66-2.7,7.28-7.53,10.07a28.58,28.58,0,0,1-4.14,1.94Z" style="fill:#40A2FF"></path><path d="M281.2,373.92c-10.05-5.8-26.34-5.8-36.39,0s-10.05,15.21,0,21,26.34,5.8,36.39,0S291.25,379.72,281.2,373.92Z" style="fill:#40A2FF"></path><path d="M281.2,373.92c-10.05-5.8-26.34-5.8-36.39,0s-10.05,15.21,0,21,26.34,5.8,36.39,0S291.25,379.72,281.2,373.92Z" style="opacity:0.2"></path><path d="M274.85,377.77a29,29,0,0,0-23.69,0c-3.37,1.72-5.23,4.09-5.23,6.66s1.86,4.93,5.23,6.66a29,29,0,0,0,23.69,0c3.37-1.73,5.22-4.09,5.22-6.66S278.22,379.49,274.85,377.77Z" style="fill:#40A2FF"></path><path d="M274.85,377.77a29,29,0,0,0-23.69,0c-3.37,1.72-5.23,4.09-5.23,6.66s1.86,4.93,5.23,6.66a29,29,0,0,0,23.69,0c3.37-1.73,5.22-4.09,5.22-6.66S278.22,379.49,274.85,377.77Z" style="opacity:0.4"></path><path d="M280.64,374.89c-4.69-2.71-11-4.2-17.64-4.2s-12.94,1.49-17.63,4.2c-4.5,2.6-7,6-7,9.54s2.48,6.94,7,9.53c4.69,2.71,10.95,4.2,17.63,4.2s12.95-1.49,17.64-4.2c4.49-2.59,7-6,7-9.53S285.13,377.49,280.64,374.89Zm-5.79,16.2a29,29,0,0,1-23.69,0c-3.37-1.73-5.23-4.09-5.23-6.66s1.86-4.94,5.23-6.66a29,29,0,0,1,23.69,0c3.37,1.72,5.22,4.09,5.22,6.66S278.22,389.36,274.85,391.09Z" style="fill:#40A2FF"></path><path d="M274.45,390.3c6.32-3.24,6.32-8.5,0-11.75s-16.57-3.24-22.89,0-6.32,8.51,0,11.75S268.13,393.54,274.45,390.3Z" style="opacity:0.2"></path><path d="M274.45,390.3c6.32-3.24,6.32-8.5,0-11.75s-16.57-3.24-22.89,0-6.32,8.51,0,11.75S268.13,393.54,274.45,390.3Z" style="fill:#40A2FF"></path><path d="M274.45,390.3c6.32-3.24,6.32-8.5,0-11.75s-16.57-3.24-22.89,0-6.32,8.51,0,11.75S268.13,393.54,274.45,390.3Z" style="opacity:0.6000000000000001"></path><path d="M274.45,380.75c-6.32-3.24-16.57-3.24-22.89,0-2.61,1.34-4.14,3-4.6,4.78.46,1.74,2,3.43,4.6,4.77,6.32,3.24,16.57,3.24,22.89,0,2.61-1.34,4.14-3,4.59-4.77C278.59,383.78,277.06,382.1,274.45,380.75Z" style="fill:#40A2FF"></path><path d="M274.45,380.75c-6.32-3.24-16.57-3.24-22.89,0-2.61,1.34-4.14,3-4.6,4.78.46,1.74,2,3.43,4.6,4.77,6.32,3.24,16.57,3.24,22.89,0,2.61-1.34,4.14-3,4.59-4.77C278.59,383.78,277.06,382.1,274.45,380.75Z" style="opacity:0.5"></path><polygon points="264.54 378.68 264.54 381.05 263.73 381.91 262.23 383.48 262.23 381.01 264.54 378.68" style="fill:#40A2FF"></polygon><polygon points="264.54 378.68 264.54 381.05 263.73 381.91 262.23 383.48 262.23 381.01 264.54 378.68" style="opacity:0.30000000000000004"></polygon><path d="M262.23,381v1.4a13,13,0,0,1-2.31.65,2.26,2.26,0,0,1-1,0,1.93,1.93,0,0,1-.47-.19c-.57-.34-.67-.85.42-1.47A3.77,3.77,0,0,1,262.23,381Z" style="fill:#40A2FF"></path><path d="M262.23,381v1.4a13,13,0,0,1-2.31.65,2.26,2.26,0,0,1-1,0,1.93,1.93,0,0,1-.47-.19c-.57-.34-.67-.85.42-1.47A3.77,3.77,0,0,1,262.23,381Z" style="opacity:0.45"></path><path d="M273,387.75v2l-2.6,1.5-1.92-1.11a9.79,9.79,0,0,1-7.43.34v-2l1.18-1.17-1.18.32a7.6,7.6,0,0,1-5.79-.66c-1.16-.67-1.7-1.41-1.7-2.16v-2l.21-.87-.71-.41v-2l1.92,1.11a3,3,0,0,0-1.42,2.2v0c0,.74.57,1.45,1.7,2.11,2.53,1.46,5,1,7.32.24,2.13-.69,3.68-1.51,4.91-.8.76.44.53,1-.33,1.47a4.23,4.23,0,0,1-3.66.21L261,388.47a8.69,8.69,0,0,0,1.36.39,10.06,10.06,0,0,0,6.07-.73l1.92,1.11Z" style="fill:#40A2FF"></path><path d="M253.53,382.78v0c0,.74.57,1.45,1.7,2.11,2.53,1.46,5,1,7.32.24,2.13-.69,3.68-1.51,4.91-.8.76.44.53,1-.33,1.47a4.23,4.23,0,0,1-3.66.21L261,388.47a8.69,8.69,0,0,0,1.36.39,10.06,10.06,0,0,0,6.07-.73l1.92,1.11,2.6-1.49v2l-2.6,1.5-1.92-1.11a9.79,9.79,0,0,1-7.43.34v-2l1.18-1.17-1.18.32a7.6,7.6,0,0,1-5.79-.66c-1.16-.67-1.7-1.41-1.7-2.16v-2l.21-.87" style="opacity:0.35000000000000003"></path><path d="M253,379.47v2l.71.41h0a4,4,0,0,1,1.21-1.36Z" style="opacity:0.45"></path><path d="M272.54,386.41a2.36,2.36,0,0,1-.19,1l-1.3-.74a2.58,2.58,0,0,0,1.47-2C272.53,385.23,272.54,386.35,272.54,386.41Z" style="fill:#40A2FF"></path><g style="opacity:0.30000000000000004"><path d="M272.54,386.41a2.36,2.36,0,0,1-.19,1l-1.3-.74a2.58,2.58,0,0,0,1.47-2C272.53,385.23,272.54,386.35,272.54,386.41Z"></path></g><path d="M272.54,387.5l-1.49-.87a2.53,2.53,0,0,0,1.49-2.27,1.23,1.23,0,0,0,0-.2c-.06-.71-.58-1.4-1.66-2h0a6.75,6.75,0,0,0-3.45-.9h-.33l-.31,0-.27,0h-.11l-.2,0a14.68,14.68,0,0,0-1.68.35c-.26.07-.53.14-.78.23s-.74.24-1.09.35l-.41.14a13.17,13.17,0,0,1-2.3.66,2.53,2.53,0,0,1-1,0,2,2,0,0,1-.46-.19c-.58-.34-.67-.84.42-1.47a3.81,3.81,0,0,1,3.34-.35l2.31-2.33a9.87,9.87,0,0,0-7,.39L255.65,378,253,379.47l1.92,1.11a3,3,0,0,0-1.42,2.2v0c0,.74.56,1.46,1.7,2.11,2.53,1.46,5,1,7.32.24,2.13-.7,3.68-1.51,4.91-.8.76.44.53,1-.33,1.47a4.23,4.23,0,0,1-3.66.21L261,388.47a10,10,0,0,0,1.36.4,9.07,9.07,0,0,0,2.36.17,11,11,0,0,0,3.71-.91l1.92,1.12,2.6-1.5Z" style="fill:#40A2FF"></path><polygon points="268.45 388.13 268.45 390.18 270.38 391.29 270.38 389.24 268.45 388.13" style="fill:#40A2FF"></polygon><polygon points="268.45 388.13 268.45 390.18 270.38 391.29 270.38 389.24 268.45 388.13" style="opacity:0.45"></polygon><polygon points="253.03 379.47 255.65 377.96 257.57 379.07 255.67 378.27 253.03 379.47" style="fill:#f5f5f5"></polygon><path d="M258.89,381.36a3.81,3.81,0,0,1,3.34-.35l2.31-2.33-2.31,2.09A3.51,3.51,0,0,0,258.89,381.36Z" style="fill:#f5f5f5"></path><path d="M261,388.47a10,10,0,0,0,1.36.4,9.07,9.07,0,0,0,2.36.17,8.27,8.27,0,0,1-3.33-.67l2.06-2.34Z" style="fill:#f5f5f5"></path><polygon points="268.45 388.13 270.38 389 272.97 387.75 270.38 389.24 268.45 388.13" style="fill:#f5f5f5"></polygon><path d="M245.57,375.24c6.81-4.14,17.43-4.55,17.43-4.55-6.68,0-12.94,1.49-17.63,4.2-4.5,2.6-7,6-7,9.54C238.39,384.43,238.64,379.45,245.57,375.24Z" style="fill:#f5f5f5"></path><path d="M261,399.24c7.23.32,14.65-1.12,20.18-4.31,5.75-3.32,8.21-7.82,7.38-12.15,0,0,1.07,7.06-7.82,11.89S261,399.24,261,399.24Z" style="fill:#f5f5f5"></path></g></g></svg>